<svg width="130" height="107" viewBox="0 0 130 107" fill="none" xmlns="http://www.w3.org/2000/svg">
<rect x="8.72461" y="99" width="14.4099" height="2" fill="black"/>
<rect x="37.5444" y="39.0007" width="62.4429" height="68" rx="5" fill="black"/>
<path d="M26.3664 102.117C27.7469 102.133 28.877 101.027 28.8905 99.6466L29.1101 77.147C29.1236 75.7663 28.0153 74.6338 26.6348 74.6175C25.2542 74.6012 24.1241 75.7072 24.1106 77.0879L23.9154 97.0876L3.91743 96.8513C2.53685 96.835 1.40675 97.9411 1.39328 99.3217C1.3798 100.702 2.48806 101.835 3.86863 101.851L26.3664 102.117ZM26.6807 20.3851C9.70788 34.6801 0.607492 46.7118 0.46783 59.7125C0.329051 72.6308 9.07373 85.492 24.6059 101.364L28.1756 97.8702C12.6045 81.9585 5.35278 70.4345 5.46728 59.7764C5.58089 49.2007 12.9834 38.4651 29.9059 24.2125L26.6807 20.3851Z" fill="black"/>
<g filter="url(#filter0_d_84_377)">
<path d="M83.0112 15.2431C81.9632 16.1208 81.8326 17.7045 82.7194 18.7806L97.1703 36.3161C98.057 37.3921 99.6255 37.553 100.673 36.6754C101.721 35.7977 101.852 34.214 100.965 33.1379L88.12 17.5508L103.3 4.83807C104.348 3.96044 104.478 2.37666 103.592 1.30059C102.705 0.224528 101.137 0.0636666 100.089 0.9413L83.0112 15.2431ZM125.455 27.0164C118.763 22.1339 108.454 19.0863 100.135 17.2536C95.917 16.3243 92.0997 15.6849 89.3369 15.2776C87.9544 15.0738 86.833 14.9276 86.0541 14.8321C85.6646 14.7844 85.3605 14.7493 85.152 14.7259C85.0478 14.7142 84.9674 14.7055 84.9122 14.6995C84.8846 14.6966 84.8632 14.6943 84.8484 14.6928C84.8409 14.692 84.8351 14.6914 84.8309 14.6909C84.8288 14.6907 84.8271 14.6905 84.8258 14.6904C84.8252 14.6903 84.8245 14.6903 84.8242 14.6902C84.8236 14.6902 84.8232 14.6901 84.6168 17.1915C84.4105 19.6929 84.4102 19.6929 84.4101 19.6929C84.4102 19.6929 84.4102 19.6929 84.4103 19.6929C84.4107 19.6929 84.4115 19.693 84.4126 19.6931C84.415 19.6934 84.4189 19.6938 84.4245 19.6944C84.4356 19.6955 84.4531 19.6974 84.4769 19.6999C84.5244 19.705 84.5969 19.7129 84.693 19.7237C84.8854 19.7452 85.1724 19.7784 85.5441 19.8239C86.2876 19.9151 87.3688 20.0559 88.7073 20.2532C91.3866 20.6482 95.085 21.268 99.1614 22.166C107.432 23.988 116.827 26.8679 122.595 31.0764L125.455 27.0164Z" fill="black"/>
</g>
<rect x="44.269" y="44.0007" width="48.9937" height="5" fill="#5C5B5B"/>
<rect x="44.269" y="94.0007" width="48.9937" height="9" fill="#5C5B5B"/>
<rect x="44.269" y="61.0007" width="48.9937" height="28" fill="#5C5B5B"/>
<rect x="48.1117" y="70.0007" width="42.269" height="3" fill="black"/>
<defs>
<filter id="filter0_d_84_377" x="78.1311" y="0.375244" width="51.3237" height="44.866" filterUnits="userSpaceOnUse" color-interpolation-filters="sRGB">
<feFlood flood-opacity="0" result="BackgroundImageFix"/>
<feColorMatrix in="SourceAlpha" type="matrix" values="0 0 0 0 0 0 0 0 0 0 0 0 0 0 0 0 0 0 127 0" result="hardAlpha"/>
<feOffset dy="4"/>
<feGaussianBlur stdDeviation="2"/>
<feComposite in2="hardAlpha" operator="out"/>
<feColorMatrix type="matrix" values="0 0 0 0 0 0 0 0 0 0 0 0 0 0 0 0 0 0 0.25 0"/>
<feBlend mode="normal" in2="BackgroundImageFix" result="effect1_dropShadow_84_377"/>
<feBlend mode="normal" in="SourceGraphic" in2="effect1_dropShadow_84_377" result="shape"/>
</filter>
</defs>
</svg>
