<svg width="648" height="179" viewBox="0 0 648 179" fill="none" xmlns="http://www.w3.org/2000/svg">
<rect x="11.0191" y="2.5" width="238.403" height="72.2398" rx="7.5" fill="#D9BA6C" stroke="#D9BA6C" stroke-width="5"/>
<rect x="226.365" y="63.7534" width="49.0411" height="12.1702" rx="3" transform="rotate(-90 226.365 63.7534)" fill="#DAD7D2"/>
<rect x="18.2552" y="63.7534" width="49.0411" height="182.553" rx="5" transform="rotate(-90 18.2552 63.7534)" fill="#84A57F"/>
<path d="M57.96 48.08C56.8933 48.8053 55.5493 49.3707 53.928 49.776C52.328 50.1813 50.6213 50.384 48.808 50.384C46.5467 50.384 44.6267 50.1067 43.048 49.552C41.4693 48.976 40.2747 48.1867 39.464 47.184C38.6533 46.16 38.248 44.9973 38.248 43.696C38.248 42.5013 38.5787 41.4453 39.24 40.528C39.9013 39.6107 40.808 38.928 41.96 38.48C41.0853 38.0107 40.4027 37.3707 39.912 36.56C39.4427 35.7493 39.208 34.8427 39.208 33.84C39.208 32.624 39.5813 31.5147 40.328 30.512C41.0747 29.5093 42.2053 28.7093 43.72 28.112C45.2347 27.5147 47.0907 27.216 49.288 27.216C50.7387 27.216 52.1573 27.3653 53.544 27.664C54.9307 27.9413 56.136 28.3253 57.16 28.816L55.72 32.784C53.7573 31.8667 51.6773 31.408 49.48 31.408C47.816 31.408 46.5573 31.664 45.704 32.176C44.872 32.6667 44.456 33.3387 44.456 34.192C44.456 34.9813 44.7333 35.5893 45.288 36.016C45.864 36.4213 46.728 36.624 47.88 36.624H53.992V40.72H47.56C46.2587 40.72 45.256 40.944 44.552 41.392C43.848 41.84 43.496 42.4907 43.496 43.344C43.496 44.24 43.944 44.944 44.84 45.456C45.7573 45.9467 47.1547 46.192 49.032 46.192C50.3547 46.192 51.6773 46.0213 53 45.68C54.3227 45.3173 55.4427 44.816 56.36 44.176L57.96 48.08ZM87.0158 32.784V50H60.7438V32.784H65.7038V45.904H71.4318V32.784H76.3918V45.904H82.0558V32.784H87.0158ZM89.4158 45.904V53.424H84.7758V50H81.9278V45.904H89.4158ZM100.382 46.256C101.278 46.256 102.068 46.128 102.75 45.872C103.454 45.5947 104.105 45.168 104.702 44.592L107.358 47.472C105.737 49.328 103.369 50.256 100.254 50.256C98.3129 50.256 96.5956 49.8827 95.1023 49.136C93.6089 48.368 92.4569 47.312 91.6463 45.968C90.8356 44.624 90.4303 43.0987 90.4303 41.392C90.4303 39.7067 90.8249 38.192 91.6143 36.848C92.4249 35.4827 93.5236 34.4267 94.9103 33.68C96.3183 32.912 97.8969 32.528 99.6463 32.528C101.289 32.528 102.782 32.88 104.126 33.584C105.47 34.2667 106.537 35.2693 107.326 36.592C108.137 37.8933 108.542 39.44 108.542 41.232L95.8063 43.696C96.1689 44.5493 96.7343 45.1893 97.5023 45.616C98.2916 46.0427 99.2516 46.256 100.382 46.256ZM99.6463 36.304C98.3876 36.304 97.3636 36.7093 96.5743 37.52C95.7849 38.3307 95.3689 39.4507 95.3263 40.88L103.71 39.248C103.476 38.352 102.996 37.6373 102.27 37.104C101.545 36.5707 100.67 36.304 99.6463 36.304ZM129.888 32.528C131.723 32.528 133.323 32.8907 134.688 33.616C136.054 34.3413 137.11 35.376 137.856 36.72C138.603 38.064 138.976 39.632 138.976 41.424C138.976 43.1733 138.624 44.72 137.92 46.064C137.216 47.3867 136.224 48.4213 134.944 49.168C133.664 49.8933 132.192 50.256 130.528 50.256C128.331 50.256 126.614 49.5627 125.376 48.176V56.208H120.384V41.456C120.384 39.6853 120.779 38.128 121.568 36.784C122.358 35.44 123.467 34.3947 124.896 33.648C126.326 32.9013 127.99 32.528 129.888 32.528ZM129.664 46.16C130.966 46.16 132.022 45.7227 132.832 44.848C133.643 43.9733 134.048 42.832 134.048 41.424C134.048 39.9947 133.643 38.8427 132.832 37.968C132.022 37.072 130.966 36.624 129.664 36.624C128.363 36.624 127.307 37.0613 126.496 37.936C125.707 38.8107 125.312 39.9627 125.312 41.392C125.312 42.8213 125.707 43.9733 126.496 44.848C127.286 45.7227 128.342 46.16 129.664 46.16ZM159.87 32.784V50H155.102V48.016C153.864 49.5093 152.072 50.256 149.726 50.256C148.104 50.256 146.632 49.8933 145.31 49.168C144.008 48.4427 142.984 47.408 142.238 46.064C141.491 44.72 141.118 43.1627 141.118 41.392C141.118 39.6213 141.491 38.064 142.238 36.72C142.984 35.376 144.008 34.3413 145.31 33.616C146.632 32.8907 148.104 32.528 149.726 32.528C151.923 32.528 153.64 33.2213 154.878 34.608V32.784H159.87ZM150.59 46.16C151.848 46.16 152.894 45.7333 153.726 44.88C154.558 44.0053 154.974 42.8427 154.974 41.392C154.974 39.9413 154.558 38.7893 153.726 37.936C152.894 37.0613 151.848 36.624 150.59 36.624C149.31 36.624 148.254 37.0613 147.422 37.936C146.59 38.7893 146.174 39.9413 146.174 41.392C146.174 42.8427 146.59 44.0053 147.422 44.88C148.254 45.7333 149.31 46.16 150.59 46.16ZM175.599 41.04C176.623 41.36 177.413 41.8507 177.967 42.512C178.543 43.1733 178.831 43.9627 178.831 44.88C178.831 45.968 178.458 46.928 177.711 47.76C176.965 48.5707 175.941 49.2 174.639 49.648C173.338 50.096 171.866 50.32 170.223 50.32C168.879 50.32 167.557 50.1813 166.255 49.904C164.954 49.6267 163.749 49.2107 162.639 48.656L163.983 45.168C165.797 46.0427 167.802 46.48 169.999 46.48C171.173 46.48 172.09 46.3093 172.751 45.968C173.434 45.6053 173.775 45.104 173.775 44.464C173.775 43.9093 173.541 43.4933 173.071 43.216C172.602 42.9173 171.919 42.768 171.023 42.768H167.503V39.664H170.575C171.45 39.664 172.122 39.5253 172.591 39.248C173.061 38.9707 173.295 38.5653 173.295 38.032C173.295 37.4773 172.997 37.0507 172.399 36.752C171.823 36.4533 170.991 36.304 169.903 36.304C168.239 36.304 166.426 36.6987 164.463 37.488L163.247 34.032C165.637 32.9867 167.962 32.464 170.223 32.464C171.781 32.464 173.167 32.656 174.383 33.04C175.621 33.424 176.591 33.9893 177.295 34.736C177.999 35.4613 178.351 36.3147 178.351 37.296C178.351 38.1067 178.106 38.8427 177.615 39.504C177.125 40.144 176.453 40.656 175.599 41.04Z" fill="white"/>
<rect x="174.033" y="143.445" width="45.0296" height="35.5548" rx="5" fill="black" fill-opacity="0.3"/>
<rect x="462.466" y="143.445" width="45.0296" height="35.5548" rx="5" fill="black" fill-opacity="0.3"/>
<path d="M462.466 133.829C462.466 129.115 462.466 126.758 463.931 125.293C465.395 123.829 467.752 123.829 472.466 123.829H497.496C502.21 123.829 504.567 123.829 506.032 125.293C507.496 126.758 507.496 129.115 507.496 133.829V160.418C507.496 165.132 507.496 167.489 506.032 168.953C504.567 170.418 502.21 170.418 497.496 170.418H472.466C467.752 170.418 465.395 170.418 463.931 168.953C462.466 167.489 462.466 165.132 462.466 160.418V133.829Z" fill="#61360E"/>
<path d="M174.033 133.829C174.033 129.115 174.033 126.758 175.498 125.293C176.962 123.829 179.319 123.829 184.033 123.829H209.063C213.777 123.829 216.134 123.829 217.599 125.293C219.063 126.758 219.063 129.115 219.063 133.829V160.418C219.063 165.132 219.063 167.489 217.599 168.953C216.134 170.418 213.777 170.418 209.063 170.418H184.033C179.319 170.418 176.962 170.418 175.498 168.953C174.033 167.489 174.033 165.132 174.033 160.418V133.829Z" fill="#61360E"/>
<path d="M180.119 151.414C180.119 147.478 180.119 145.509 181.165 144.158C181.424 143.824 181.723 143.525 182.057 143.266C183.409 142.219 185.377 142.219 189.314 142.219H205C208.936 142.219 210.905 142.219 212.257 143.266C212.59 143.525 212.89 143.824 213.148 144.158C214.195 145.509 214.195 147.478 214.195 151.414C214.195 155.351 214.195 157.319 213.148 158.671C212.89 159.005 212.59 159.304 212.257 159.563C210.905 160.61 208.936 160.61 205 160.61H189.314C185.377 160.61 183.409 160.61 182.057 159.563C181.723 159.304 181.424 159.005 181.165 158.671C180.119 157.319 180.119 155.351 180.119 151.414Z" fill="#7A5634"/>
<path d="M468.552 151.414C468.552 147.478 468.552 145.509 469.598 144.158C469.857 143.824 470.156 143.525 470.49 143.266C471.842 142.219 473.81 142.219 477.747 142.219H493.433C497.369 142.219 499.338 142.219 500.69 143.266C501.023 143.525 501.323 143.824 501.581 144.158C502.628 145.509 502.628 147.478 502.628 151.414C502.628 155.351 502.628 157.319 501.581 158.671C501.323 159.005 501.023 159.304 500.69 159.563C499.338 160.61 497.369 160.61 493.433 160.61H477.747C473.81 160.61 471.842 160.61 470.49 159.563C470.156 159.304 469.857 159.005 469.598 158.671C468.552 157.319 468.552 155.351 468.552 151.414Z" fill="#7A5634"/>
<rect width="647.108" height="34.5135" rx="5" transform="matrix(0.999998 -0.00221773 0.00218525 0.999998 6.10352e-05 109.326)" fill="black" fill-opacity="0.3"/>
<rect width="647.108" height="34.5135" rx="5" transform="matrix(0.999998 -0.00221773 0.00218525 0.999998 0 95.7485)" fill="#61360E"/>
<rect width="647.108" height="34.5135" rx="5" transform="matrix(0.999998 -0.00221773 0.00218525 0.999998 6.10352e-05 77.4487)" fill="#7A5634"/>
<rect width="307.625" height="16.4072" rx="8.2036" transform="matrix(0.999998 -0.00221773 0.00218525 0.999998 20.6893 86.5039)" fill="#AB896A"/>
<rect width="76.3632" height="16.4043" rx="8.20213" transform="matrix(0.999998 -0.00221773 0.00218525 0.999998 462.466 85.9912)" fill="#AB896A"/>
</svg>
