<svg width="648" height="179" viewBox="0 0 648 179" fill="none" xmlns="http://www.w3.org/2000/svg">
<rect x="11.019" y="2.5" width="357.481" height="72.2398" rx="7.5" fill="#D9BA6C" stroke="#D9BA6C" stroke-width="5"/>
<rect x="332.939" y="63.7534" width="49.0411" height="18.124" rx="3" transform="rotate(-90 332.939 63.7534)" fill="#DAD7D2"/>
<rect x="23.0182" y="63.7534" width="49.0411" height="271.861" rx="5" transform="rotate(-90 23.0182 63.7534)" fill="#D2815F"/>
<path d="M53.4 33.96H43.41L43.44 51H38.61V30H53.43L53.4 33.96ZM67.2945 34.86V51H62.6145V38.7H57.5145L57.3645 41.55C57.2845 43.67 57.0845 45.43 56.7645 46.83C56.4445 48.23 55.9245 49.33 55.2045 50.13C54.4845 50.93 53.4845 51.33 52.2045 51.33C51.5245 51.33 50.7145 51.21 49.7745 50.97L50.0145 47.13C50.3345 47.17 50.5645 47.19 50.7045 47.19C51.4045 47.19 51.9245 46.94 52.2645 46.44C52.6245 45.92 52.8645 45.27 52.9845 44.49C53.1045 43.69 53.1945 42.64 53.2545 41.34L53.4945 34.86H67.2945ZM88.0849 34.86V51H83.6149V49.14C82.4549 50.54 80.7749 51.24 78.5749 51.24C77.0549 51.24 75.6749 50.9 74.4349 50.22C73.2149 49.54 72.2549 48.57 71.5549 47.31C70.8549 46.05 70.5049 44.59 70.5049 42.93C70.5049 41.27 70.8549 39.81 71.5549 38.55C72.2549 37.29 73.2149 36.32 74.4349 35.64C75.6749 34.96 77.0549 34.62 78.5749 34.62C80.6349 34.62 82.2449 35.27 83.4049 36.57V34.86H88.0849ZM79.3849 47.4C80.5649 47.4 81.5449 47 82.3249 46.2C83.1049 45.38 83.4949 44.29 83.4949 42.93C83.4949 41.57 83.1049 40.49 82.3249 39.69C81.5449 38.87 80.5649 38.46 79.3849 38.46C78.1849 38.46 77.1949 38.87 76.4149 39.69C75.6349 40.49 75.2449 41.57 75.2449 42.93C75.2449 44.29 75.6349 45.38 76.4149 46.2C77.1949 47 78.1849 47.4 79.3849 47.4ZM104.838 42.57C106.738 43.21 107.688 44.49 107.688 46.41C107.688 47.87 107.138 49 106.038 49.8C104.938 50.6 103.298 51 101.118 51H92.5078V34.86H100.758C102.778 34.86 104.358 35.23 105.498 35.97C106.638 36.69 107.208 37.71 107.208 39.03C107.208 39.83 106.998 40.54 106.578 41.16C106.178 41.76 105.598 42.23 104.838 42.57ZM96.7978 41.49H100.338C101.978 41.49 102.798 40.91 102.798 39.75C102.798 38.61 101.978 38.04 100.338 38.04H96.7978V41.49ZM100.728 47.82C102.448 47.82 103.308 47.23 103.308 46.05C103.308 45.43 103.108 44.98 102.708 44.7C102.308 44.4 101.678 44.25 100.818 44.25H96.7978V47.82H100.728ZM111.17 34.86H115.82V41.16H122.84V34.86H127.52V51H122.84V44.97H115.82V51H111.17V34.86ZM139.32 51.45C136.76 51.45 134.84 50.88 133.56 49.74C132.28 48.6 131.64 46.92 131.64 44.7V34.86H136.29V40.32C136.75 40 137.35 39.73 138.09 39.51C138.85 39.29 139.71 39.18 140.67 39.18C142.65 39.18 144.2 39.68 145.32 40.68C146.44 41.68 147 43.14 147 45.06C147 47.1 146.31 48.68 144.93 49.8C143.55 50.9 141.68 51.45 139.32 51.45ZM148.71 34.86H153.39V51H148.71V34.86ZM139.32 48.15C140.28 48.15 141.01 47.87 141.51 47.31C142.01 46.75 142.26 46.02 142.26 45.12C142.26 44.28 142 43.61 141.48 43.11C140.98 42.59 140.25 42.33 139.29 42.33C138.61 42.33 138.01 42.47 137.49 42.75C136.99 43.01 136.59 43.37 136.29 43.83V45.15C136.29 46.09 136.55 46.83 137.07 47.37C137.59 47.89 138.34 48.15 139.32 48.15ZM173.799 34.86V51H169.329V49.11C168.729 49.81 167.989 50.34 167.109 50.7C166.249 51.06 165.329 51.24 164.349 51.24C162.229 51.24 160.539 50.63 159.279 49.41C158.039 48.19 157.419 46.38 157.419 43.98V34.86H162.099V43.29C162.099 45.89 163.189 47.19 165.369 47.19C166.509 47.19 167.419 46.83 168.099 46.11C168.779 45.37 169.119 44.28 169.119 42.84V34.86H173.799ZM165.489 33.12C161.969 33.12 160.199 31.57 160.179 28.47H163.239C163.259 29.17 163.449 29.72 163.809 30.12C164.189 30.5 164.739 30.69 165.459 30.69C166.179 30.69 166.729 30.5 167.109 30.12C167.509 29.72 167.709 29.17 167.709 28.47H170.829C170.809 31.57 169.029 33.12 165.489 33.12ZM192.216 34.56C193.956 34.56 195.506 34.92 196.866 35.64C198.246 36.34 199.326 37.33 200.106 38.61C200.886 39.89 201.276 41.33 201.276 42.93C201.276 44.53 200.886 45.97 200.106 47.25C199.326 48.53 198.246 49.53 196.866 50.25C195.506 50.95 193.956 51.3 192.216 51.3C190.676 51.3 189.276 51.05 188.016 50.55C186.776 50.03 185.746 49.29 184.926 48.33L187.596 45.81C188.816 47.07 190.296 47.7 192.036 47.7C193.196 47.7 194.196 47.41 195.036 46.83C195.876 46.25 196.446 45.46 196.746 44.46H189.966V41.25H196.686C196.366 40.29 195.796 39.53 194.976 38.97C194.156 38.41 193.176 38.13 192.036 38.13C190.316 38.13 188.836 38.77 187.596 40.05L184.926 37.56C185.746 36.58 186.776 35.84 188.016 35.34C189.276 34.82 190.676 34.56 192.216 34.56ZM211.561 44.88H209.131V51H204.451V34.86H209.131V41.13H211.651L216.031 34.86H221.011L215.371 42.6L221.401 51H215.881L211.561 44.88ZM231.979 34.62C233.699 34.62 235.199 34.96 236.479 35.64C237.759 36.32 238.749 37.29 239.449 38.55C240.149 39.81 240.499 41.28 240.499 42.96C240.499 44.6 240.169 46.05 239.509 47.31C238.849 48.55 237.919 49.52 236.719 50.22C235.519 50.9 234.139 51.24 232.579 51.24C230.519 51.24 228.909 50.59 227.749 49.29V56.82H223.069V42.99C223.069 41.33 223.439 39.87 224.179 38.61C224.919 37.35 225.959 36.37 227.299 35.67C228.639 34.97 230.199 34.62 231.979 34.62ZM231.769 47.4C232.989 47.4 233.979 46.99 234.739 46.17C235.499 45.35 235.879 44.28 235.879 42.96C235.879 41.62 235.499 40.54 234.739 39.72C233.979 38.88 232.989 38.46 231.769 38.46C230.549 38.46 229.559 38.87 228.799 39.69C228.059 40.51 227.689 41.59 227.689 42.93C227.689 44.27 228.059 45.35 228.799 46.17C229.539 46.99 230.529 47.4 231.769 47.4ZM260.087 34.86V51H255.617V49.14C254.457 50.54 252.777 51.24 250.577 51.24C249.057 51.24 247.677 50.9 246.437 50.22C245.217 49.54 244.257 48.57 243.557 47.31C242.857 46.05 242.507 44.59 242.507 42.93C242.507 41.27 242.857 39.81 243.557 38.55C244.257 37.29 245.217 36.32 246.437 35.64C247.677 34.96 249.057 34.62 250.577 34.62C252.637 34.62 254.247 35.27 255.407 36.57V34.86H260.087ZM251.387 47.4C252.567 47.4 253.547 47 254.327 46.2C255.107 45.38 255.497 44.29 255.497 42.93C255.497 41.57 255.107 40.49 254.327 39.69C253.547 38.87 252.567 38.46 251.387 38.46C250.187 38.46 249.197 38.87 248.417 39.69C247.637 40.49 247.247 41.57 247.247 42.93C247.247 44.29 247.637 45.38 248.417 46.2C249.197 47 250.187 47.4 251.387 47.4ZM264.51 34.86H269.16V41.16H276.18V34.86H280.86V51H276.18V44.97H269.16V51H264.51V34.86Z" fill="white"/>
<rect x="174.033" y="143.445" width="45.0296" height="35.5548" rx="5" fill="black" fill-opacity="0.3"/>
<rect x="462.467" y="143.445" width="45.0296" height="35.5548" rx="5" fill="black" fill-opacity="0.3"/>
<path d="M462.467 133.829C462.467 129.115 462.467 126.758 463.931 125.293C465.395 123.829 467.753 123.829 472.467 123.829H497.496C502.21 123.829 504.567 123.829 506.032 125.293C507.496 126.758 507.496 129.115 507.496 133.829V160.418C507.496 165.132 507.496 167.489 506.032 168.953C504.567 170.418 502.21 170.418 497.496 170.418H472.467C467.753 170.418 465.395 170.418 463.931 168.953C462.467 167.489 462.467 165.132 462.467 160.418V133.829Z" fill="#61360E"/>
<path d="M174.033 133.829C174.033 129.115 174.033 126.758 175.498 125.293C176.962 123.829 179.319 123.829 184.033 123.829H209.063C213.777 123.829 216.134 123.829 217.599 125.293C219.063 126.758 219.063 129.115 219.063 133.829V160.418C219.063 165.132 219.063 167.489 217.599 168.953C216.134 170.418 213.777 170.418 209.063 170.418H184.033C179.319 170.418 176.962 170.418 175.498 168.953C174.033 167.489 174.033 165.132 174.033 160.418V133.829Z" fill="#61360E"/>
<path d="M180.119 151.414C180.119 147.478 180.119 145.509 181.165 144.158C181.424 143.824 181.723 143.525 182.057 143.266C183.409 142.219 185.377 142.219 189.314 142.219H205C208.936 142.219 210.905 142.219 212.257 143.266C212.59 143.525 212.89 143.824 213.148 144.158C214.195 145.509 214.195 147.478 214.195 151.414C214.195 155.351 214.195 157.319 213.148 158.671C212.89 159.005 212.59 159.304 212.257 159.563C210.905 160.61 208.936 160.61 205 160.61H189.314C185.377 160.61 183.409 160.61 182.057 159.563C181.723 159.304 181.424 159.005 181.165 158.671C180.119 157.319 180.119 155.351 180.119 151.414Z" fill="#7A5634"/>
<path d="M468.552 151.414C468.552 147.478 468.552 145.509 469.598 144.158C469.857 143.824 470.156 143.525 470.49 143.266C471.842 142.219 473.81 142.219 477.747 142.219H493.433C497.369 142.219 499.338 142.219 500.69 143.266C501.023 143.525 501.323 143.824 501.581 144.158C502.628 145.509 502.628 147.478 502.628 151.414C502.628 155.351 502.628 157.319 501.581 158.671C501.323 159.005 501.023 159.304 500.69 159.563C499.338 160.61 497.369 160.61 493.433 160.61H477.747C473.81 160.61 471.842 160.61 470.49 159.563C470.156 159.304 469.857 159.005 469.598 158.671C468.552 157.319 468.552 155.351 468.552 151.414Z" fill="#7A5634"/>
<rect width="647.108" height="34.5135" rx="5" transform="matrix(0.999998 -0.00221773 0.00218525 0.999998 0.00012207 109.326)" fill="black" fill-opacity="0.3"/>
<rect width="647.108" height="34.5135" rx="5" transform="matrix(0.999998 -0.00221773 0.00218525 0.999998 0 95.7485)" fill="#61360E"/>
<rect width="647.108" height="34.5135" rx="5" transform="matrix(0.999998 -0.00221773 0.00218525 0.999998 0.00012207 77.4487)" fill="#7A5634"/>
<rect width="307.625" height="16.4072" rx="8.2036" transform="matrix(0.999998 -0.00221773 0.00218525 0.999998 20.6893 86.5039)" fill="#AB896A"/>
<rect width="76.3632" height="16.4043" rx="8.20213" transform="matrix(0.999998 -0.00221773 0.00218525 0.999998 462.467 85.9912)" fill="#AB896A"/>
</svg>
