<svg width="532" height="146" viewBox="0 0 532 146" fill="none" xmlns="http://www.w3.org/2000/svg">
<rect x="9.5" y="2.5" width="195" height="58" rx="7.5" fill="#D9BA6C" stroke="#D9BA6C" stroke-width="5"/>
<rect x="186" y="52" width="40" height="10" rx="3" transform="rotate(-90 186 52)" fill="#DAD7D2"/>
<rect x="15" y="52" width="40" height="150" rx="5" transform="rotate(-90 15 52)" fill="#BE8D74"/>
<path d="M27.56 44C27.12 44 26.75 43.85 26.45 43.55C26.15 43.25 26 42.88 26 42.44V22.13C26 21.67 26.15 21.3 26.45 21.02C26.75 20.72 27.12 20.57 27.56 20.57H43.52C43.98 20.57 44.35 20.72 44.63 21.02C44.93 21.3 45.08 21.67 45.08 22.13V42.44C45.08 42.88 44.93 43.25 44.63 43.55C44.35 43.85 43.98 44 43.52 44C43.08 44 42.71 43.85 42.41 43.55C42.11 43.25 41.96 42.88 41.96 42.44V23.33H29.12V42.44C29.12 42.88 28.97 43.25 28.67 43.55C28.39 43.85 28.02 44 27.56 44ZM58.2181 44.12C56.5981 44.12 55.1681 43.77 53.9281 43.07C52.6881 42.35 51.7081 41.37 50.9881 40.13C50.2881 38.87 49.9381 37.43 49.9381 35.81C49.9381 34.17 50.2881 32.73 50.9881 31.49C51.7081 30.23 52.6881 29.25 53.9281 28.55C55.1681 27.83 56.5981 27.47 58.2181 27.47C59.8181 27.47 61.2381 27.83 62.4781 28.55C63.7181 29.25 64.6881 30.23 65.3881 31.49C66.1081 32.73 66.4681 34.17 66.4681 35.81C66.4681 37.43 66.1181 38.87 65.4181 40.13C64.7181 41.37 63.7481 42.35 62.5081 43.07C61.2681 43.77 59.8381 44.12 58.2181 44.12ZM58.2181 41.42C59.2581 41.42 60.1781 41.18 60.9781 40.7C61.7781 40.22 62.3981 39.56 62.8381 38.72C63.2981 37.88 63.5281 36.91 63.5281 35.81C63.5281 34.71 63.2981 33.74 62.8381 32.9C62.3981 32.04 61.7781 31.37 60.9781 30.89C60.1781 30.41 59.2581 30.17 58.2181 30.17C57.1781 30.17 56.2581 30.41 55.4581 30.89C54.6581 31.37 54.0281 32.04 53.5681 32.9C53.1081 33.74 52.8781 34.71 52.8781 35.81C52.8781 36.91 53.1081 37.88 53.5681 38.72C54.0281 39.56 54.6581 40.22 55.4581 40.7C56.2581 41.18 57.1781 41.42 58.2181 41.42ZM72.5523 44C72.1123 44 71.7423 43.86 71.4423 43.58C71.1623 43.28 71.0223 42.91 71.0223 42.47V29.12C71.0223 28.66 71.1623 28.29 71.4423 28.01C71.7423 27.73 72.1123 27.59 72.5523 27.59C73.1923 27.59 73.7323 27.9 74.1723 28.52L80.3823 37.49L86.5923 28.52C87.0323 27.9 87.5723 27.59 88.2123 27.59C88.6723 27.59 89.0423 27.73 89.3223 28.01C89.6023 28.29 89.7423 28.66 89.7423 29.12V42.47C89.7423 42.91 89.6023 43.28 89.3223 43.58C89.0423 43.86 88.6723 44 88.2123 44C87.7723 44 87.4023 43.86 87.1023 43.58C86.8223 43.28 86.6823 42.91 86.6823 42.47V31.55L87.4623 31.79L81.9423 39.59C81.4423 40.29 80.9023 40.64 80.3223 40.64C79.7423 40.62 79.2123 40.27 78.7323 39.59L73.3023 31.79L74.0823 31.55V42.47C74.0823 42.91 73.9423 43.28 73.6623 43.58C73.3823 43.86 73.0123 44 72.5523 44ZM102.574 44.12C100.954 44.12 99.5236 43.77 98.2836 43.07C97.0436 42.35 96.0636 41.37 95.3436 40.13C94.6436 38.87 94.2936 37.43 94.2936 35.81C94.2936 34.17 94.6436 32.73 95.3436 31.49C96.0636 30.23 97.0436 29.25 98.2836 28.55C99.5236 27.83 100.954 27.47 102.574 27.47C104.174 27.47 105.594 27.83 106.834 28.55C108.074 29.25 109.044 30.23 109.744 31.49C110.464 32.73 110.824 34.17 110.824 35.81C110.824 37.43 110.474 38.87 109.774 40.13C109.074 41.37 108.104 42.35 106.864 43.07C105.624 43.77 104.194 44.12 102.574 44.12ZM102.574 41.42C103.614 41.42 104.534 41.18 105.334 40.7C106.134 40.22 106.754 39.56 107.194 38.72C107.654 37.88 107.884 36.91 107.884 35.81C107.884 34.71 107.654 33.74 107.194 32.9C106.754 32.04 106.134 31.37 105.334 30.89C104.534 30.41 103.614 30.17 102.574 30.17C101.534 30.17 100.614 30.41 99.8136 30.89C99.0136 31.37 98.3836 32.04 97.9236 32.9C97.4636 33.74 97.2336 34.71 97.2336 35.81C97.2336 36.91 97.4636 37.88 97.9236 38.72C98.3836 39.56 99.0136 40.22 99.8136 40.7C100.614 41.18 101.534 41.42 102.574 41.42ZM120.358 39.08C118.918 39.08 117.728 38.75 116.788 38.09C115.848 37.43 115.148 36.53 114.688 35.39C114.248 34.23 114.028 32.9 114.028 31.4V29.12C114.028 28.66 114.168 28.29 114.448 28.01C114.748 27.73 115.118 27.59 115.558 27.59C116.018 27.59 116.388 27.73 116.668 28.01C116.948 28.29 117.088 28.66 117.088 29.12V31.4C117.088 32.84 117.368 34.02 117.928 34.94C118.508 35.86 119.518 36.32 120.958 36.32C122.098 36.32 123.028 36.13 123.748 35.75C124.488 35.37 124.858 34.88 124.858 34.28H126.448C126.448 35.22 126.188 36.05 125.668 36.77C125.148 37.49 124.428 38.06 123.508 38.48C122.608 38.88 121.558 39.08 120.358 39.08ZM126.388 44C125.948 44 125.578 43.86 125.278 43.58C124.998 43.28 124.858 42.91 124.858 42.47V29.12C124.858 28.66 124.998 28.29 125.278 28.01C125.578 27.73 125.948 27.59 126.388 27.59C126.848 27.59 127.218 27.73 127.498 28.01C127.778 28.29 127.918 28.66 127.918 29.12V42.47C127.918 42.91 127.778 43.28 127.498 43.58C127.218 43.86 126.848 44 126.388 44ZM140.717 44.27C139.217 44.27 137.907 44 136.787 43.46C135.687 42.92 134.827 42.16 134.207 41.18C133.607 40.18 133.307 39.01 133.307 37.67V29.09C133.347 28.67 133.507 28.32 133.787 28.04C134.087 27.74 134.437 27.59 134.837 27.59C135.277 27.59 135.637 27.74 135.917 28.04C136.217 28.32 136.367 28.68 136.367 29.12V32.48H141.287C142.587 32.48 143.747 32.71 144.767 33.17C145.807 33.61 146.627 34.26 147.227 35.12C147.827 35.96 148.127 36.97 148.127 38.15C148.127 39.33 147.817 40.38 147.197 41.3C146.597 42.22 145.747 42.95 144.647 43.49C143.547 44.01 142.237 44.27 140.717 44.27ZM140.687 41.45C141.967 41.45 143.037 41.18 143.897 40.64C144.757 40.08 145.187 39.25 145.187 38.15C145.187 37.11 144.817 36.34 144.077 35.84C143.337 35.32 142.407 35.06 141.287 35.06H136.367V37.61C136.367 38.33 136.557 38.98 136.937 39.56C137.317 40.14 137.827 40.6 138.467 40.94C139.127 41.28 139.867 41.45 140.687 41.45Z" fill="black"/>
<rect x="143" y="117" width="37" height="29" rx="5" fill="black" fill-opacity="0.3"/>
<rect x="380" y="117" width="37" height="29" rx="5" fill="black" fill-opacity="0.3"/>
<path d="M380 111C380 106.286 380 103.929 381.465 102.464C382.929 101 385.286 101 390 101H407C411.714 101 414.071 101 415.536 102.464C417 103.929 417 106.286 417 111V129C417 133.714 417 136.071 415.536 137.536C414.071 139 411.714 139 407 139H390C385.286 139 382.929 139 381.465 137.536C380 136.071 380 133.714 380 129V111Z" fill="#61360E"/>
<path d="M143 111C143 106.286 143 103.929 144.465 102.464C145.929 101 148.286 101 153 101H170C174.714 101 177.071 101 178.536 102.464C180 103.929 180 106.286 180 111V129C180 133.714 180 136.071 178.536 137.536C177.071 139 174.714 139 170 139H153C148.286 139 145.929 139 144.465 137.536C143 136.071 143 133.714 143 129V111Z" fill="#61360E"/>
<path d="M148 123.5C148 121.17 148 120.005 148.381 119.087C148.888 117.861 149.862 116.888 151.087 116.381C152.005 116 153.17 116 155.5 116H168.5C170.83 116 171.995 116 172.913 116.381C174.139 116.888 175.112 117.861 175.619 119.087C176 120.005 176 121.17 176 123.5C176 125.83 176 126.995 175.619 127.913C175.112 129.139 174.139 130.112 172.913 130.619C171.995 131 170.83 131 168.5 131H155.5C153.17 131 152.005 131 151.087 130.619C149.862 130.112 148.888 129.139 148.381 127.913C148 126.995 148 125.83 148 123.5Z" fill="#7A5634"/>
<path d="M385 123.5C385 121.17 385 120.005 385.381 119.087C385.888 117.861 386.862 116.888 388.087 116.381C389.005 116 390.17 116 392.5 116H405.5C407.83 116 408.995 116 409.913 116.381C411.139 116.888 412.112 117.861 412.619 119.087C413 120.005 413 121.17 413 123.5C413 125.83 413 126.995 412.619 127.913C412.112 129.139 411.139 130.112 409.913 130.619C408.995 131 407.83 131 405.5 131H392.5C390.17 131 389.005 131 388.087 130.619C386.862 130.112 385.888 129.139 385.381 127.913C385 126.995 385 125.83 385 123.5Z" fill="#7A5634"/>
<rect x="6.10352e-05" y="89.1705" width="531.716" height="28.1507" rx="5" transform="rotate(-0.126133 6.10352e-05 89.1705)" fill="black" fill-opacity="0.3"/>
<rect y="78.0965" width="531.716" height="28.1507" rx="5" transform="rotate(-0.126133 0 78.0965)" fill="#61360E"/>
<rect x="6.10352e-05" y="63.1707" width="531.716" height="28.1507" rx="5" transform="rotate(-0.126133 6.10352e-05 63.1707)" fill="#7A5634"/>
<rect x="17.0001" y="70.5565" width="252.77" height="13.3824" rx="6.6912" transform="rotate(-0.126133 17.0001 70.5565)" fill="#AB896A"/>
<rect x="380" y="70.1381" width="62.7462" height="13.38" rx="6.69" transform="rotate(-0.126133 380 70.1381)" fill="#AB896A"/>
</svg>
