<svg width="1385" height="210" viewBox="0 0 1385 210" fill="none" xmlns="http://www.w3.org/2000/svg">
<rect width="1385" height="149" rx="20" fill="white"/>
<path d="M97.1105 208.61L51.2447 138.648L141.305 137.581L97.1105 208.61Z" fill="white"/>
<path d="M70.76 59C70.2533 59 69.8267 58.8667 69.48 58.6C69.16 58.3067 69 57.92 69 57.44V29.32C69 28.8667 69.1467 28.4933 69.44 28.2C69.7333 27.9067 70.1067 27.76 70.56 27.76H80.28C81.88 27.76 83.32 28.1067 84.6 28.8C85.9067 29.4667 86.9333 30.3867 87.68 31.56C88.4533 32.7333 88.84 34.0933 88.84 35.64C88.84 37.08 88.4533 38.36 87.68 39.48C86.9067 40.6 85.8933 41.4533 84.64 42.04C86.4267 42.52 87.8667 43.4267 88.96 44.76C90.0533 46.0667 90.6 47.7333 90.6 49.76C90.6 51.5733 90.1867 53.1733 89.36 54.56C88.5333 55.9467 87.3867 57.04 85.92 57.84C84.48 58.6133 82.8267 59 80.96 59H70.76ZM72.12 56H80.96C82.24 56 83.3733 55.7467 84.36 55.24C85.3467 54.7333 86.12 54.0133 86.68 53.08C87.24 52.1467 87.52 51.04 87.52 49.76C87.52 48.56 87.24 47.52 86.68 46.64C86.12 45.7333 85.3467 45.04 84.36 44.56C83.3733 44.0533 82.24 43.8 80.96 43.8H72.12V56ZM72.12 40.8H80.28C81.88 40.8 83.2 40.3467 84.24 39.44C85.28 38.5333 85.8 37.2667 85.8 35.64C85.8 34.04 85.28 32.8267 84.24 32C83.2 31.1733 81.88 30.76 80.28 30.76H72.12V40.8ZM125.131 58.6C124.865 58.8667 124.505 59 124.051 59C123.625 59 123.278 58.8533 123.011 58.56L113.451 48.08L122.611 37.6C122.878 37.3067 123.211 37.1467 123.611 37.12C124.011 37.0933 124.358 37.2 124.651 37.44C124.971 37.7333 125.145 38.0667 125.171 38.44C125.198 38.7867 125.078 39.12 124.811 39.44L117.291 47.92L125.211 56.64C125.478 56.9333 125.611 57.2667 125.611 57.64C125.611 57.9867 125.451 58.3067 125.131 58.6ZM109.611 59C109.158 59 108.798 58.8667 108.531 58.6C108.265 58.3067 108.131 57.9333 108.131 57.48V38.68C108.131 38.2 108.265 37.8267 108.531 37.56C108.798 37.2667 109.158 37.12 109.611 37.12C110.091 37.12 110.465 37.2667 110.731 37.56C111.025 37.8267 111.171 38.2 111.171 38.68V46.6H116.051V49.4H111.171V57.48C111.171 57.9333 111.025 58.3067 110.731 58.6C110.465 58.8667 110.091 59 109.611 59ZM138.56 59.2C136.427 59.2 134.52 58.72 132.84 57.76C131.16 56.8 129.84 55.48 128.88 53.8C127.92 52.12 127.44 50.2133 127.44 48.08C127.44 45.92 127.92 44 128.88 42.32C129.84 40.64 131.16 39.32 132.84 38.36C134.52 37.4 136.427 36.92 138.56 36.92C140.693 36.92 142.587 37.4 144.24 38.36C145.92 39.32 147.24 40.64 148.2 42.32C149.16 44 149.653 45.92 149.68 48.08C149.68 50.2133 149.187 52.12 148.2 53.8C147.24 55.48 145.92 56.8 144.24 57.76C142.587 58.72 140.693 59.2 138.56 59.2ZM138.56 56.4C140.107 56.4 141.493 56.04 142.72 55.32C143.947 54.6 144.907 53.6133 145.6 52.36C146.293 51.1067 146.64 49.68 146.64 48.08C146.64 46.48 146.293 45.0533 145.6 43.8C144.907 42.52 143.947 41.52 142.72 40.8C141.493 40.08 140.107 39.72 138.56 39.72C137.013 39.72 135.627 40.08 134.4 40.8C133.173 41.52 132.2 42.52 131.48 43.8C130.787 45.0533 130.44 46.48 130.44 48.08C130.44 49.68 130.787 51.1067 131.48 52.36C132.2 53.6133 133.173 54.6 134.4 55.32C135.627 56.04 137.013 56.4 138.56 56.4ZM177.27 59.28C175.697 59.28 174.297 58.9067 173.07 58.16C171.87 57.4133 170.924 56.36 170.23 55C169.564 53.64 169.23 52.04 169.23 50.2V38.68C169.23 38.2 169.364 37.8267 169.63 37.56C169.924 37.2667 170.297 37.12 170.75 37.12C171.204 37.12 171.577 37.2667 171.87 37.56C172.164 37.8267 172.31 38.2 172.31 38.68V50.2C172.31 51.4533 172.524 52.5467 172.95 53.48C173.404 54.3867 174.03 55.0933 174.83 55.6C175.63 56.08 176.55 56.32 177.59 56.32C179.244 56.32 180.604 55.7867 181.67 54.72C182.737 53.6267 183.27 52.24 183.27 50.56L184.91 50.6C184.857 52.28 184.497 53.7733 183.83 55.08C183.164 56.3867 182.257 57.4133 181.11 58.16C179.99 58.9067 178.71 59.28 177.27 59.28ZM163.31 59.28C161.737 59.28 160.337 58.9067 159.11 58.16C157.91 57.4133 156.964 56.36 156.27 55C155.604 53.64 155.27 52.04 155.27 50.2V38.68C155.27 38.2 155.404 37.8267 155.67 37.56C155.964 37.2667 156.337 37.12 156.79 37.12C157.244 37.12 157.617 37.2667 157.91 37.56C158.204 37.8267 158.35 38.2 158.35 38.68V50.2C158.35 51.4533 158.564 52.5467 158.99 53.48C159.444 54.3867 160.07 55.0933 160.87 55.6C161.67 56.08 162.59 56.32 163.63 56.32C165.284 56.32 166.63 55.7733 167.67 54.68C168.737 53.5867 169.257 52.1333 169.23 50.32H170.87C170.844 52.08 170.497 53.64 169.83 55C169.19 56.3333 168.297 57.3867 167.15 58.16C166.03 58.9067 164.75 59.28 163.31 59.28ZM184.79 59C184.337 59 183.964 58.8667 183.67 58.6C183.404 58.3067 183.27 57.92 183.27 57.44V38.68C183.27 38.2 183.404 37.8267 183.67 37.56C183.964 37.2667 184.337 37.12 184.79 37.12C185.244 37.12 185.617 37.2667 185.91 37.56C186.204 37.8267 186.35 38.2 186.35 38.68V57.44C186.35 57.92 186.204 58.3067 185.91 58.6C185.617 58.8667 185.244 59 184.79 59ZM203.201 59.2C201.148 59.2 199.308 58.72 197.681 57.76C196.054 56.7733 194.761 55.44 193.801 53.76C192.868 52.08 192.401 50.1867 192.401 48.08C192.401 45.9467 192.881 44.04 193.841 42.36C194.828 40.68 196.161 39.36 197.841 38.4C199.521 37.4133 201.414 36.92 203.521 36.92C205.628 36.92 207.508 37.4133 209.161 38.4C210.841 39.36 212.161 40.68 213.121 42.36C214.108 44.04 214.614 45.9467 214.641 48.08L213.401 49.04C213.401 50.96 212.948 52.6933 212.041 54.24C211.161 55.76 209.948 56.9733 208.401 57.88C206.881 58.76 205.148 59.2 203.201 59.2ZM203.521 56.4C205.068 56.4 206.441 56.04 207.641 55.32C208.868 54.6 209.828 53.6133 210.521 52.36C211.241 51.08 211.601 49.6533 211.601 48.08C211.601 46.48 211.241 45.0533 210.521 43.8C209.828 42.5467 208.868 41.56 207.641 40.84C206.441 40.0933 205.068 39.72 203.521 39.72C202.001 39.72 200.628 40.0933 199.401 40.84C198.174 41.56 197.201 42.5467 196.481 43.8C195.761 45.0533 195.401 46.48 195.401 48.08C195.401 49.6533 195.761 51.08 196.481 52.36C197.201 53.6133 198.174 54.6 199.401 55.32C200.628 56.04 202.001 56.4 203.521 56.4ZM213.081 59C212.628 59 212.254 58.8667 211.961 58.6C211.668 58.3067 211.521 57.9333 211.521 57.48V50.64L212.281 47.48L214.641 48.08V57.48C214.641 57.9333 214.494 58.3067 214.201 58.6C213.908 58.8667 213.534 59 213.081 59ZM227.791 52.24C225.845 52.24 224.205 51.84 222.871 51.04C221.565 50.24 220.565 49.1067 219.871 47.64C219.178 46.1733 218.831 44.4533 218.831 42.48V38.68C218.831 38.2 218.965 37.8267 219.231 37.56C219.525 37.2667 219.911 37.12 220.391 37.12C220.845 37.12 221.205 37.2667 221.471 37.56C221.765 37.8267 221.911 38.2 221.911 38.68V42.48C221.911 44.5867 222.418 46.2533 223.431 47.48C224.471 48.7067 226.031 49.32 228.111 49.32C229.791 49.32 231.151 49.0267 232.191 48.44C233.258 47.8267 233.791 47.0533 233.791 46.12H235.351C235.325 47.2933 234.978 48.3467 234.311 49.28C233.645 50.1867 232.751 50.9067 231.631 51.44C230.511 51.9733 229.231 52.24 227.791 52.24ZM235.351 59C234.871 59 234.485 58.8667 234.191 58.6C233.925 58.3067 233.791 57.92 233.791 57.44V38.68C233.791 38.2 233.925 37.8267 234.191 37.56C234.485 37.2667 234.871 37.12 235.351 37.12C235.805 37.12 236.165 37.2667 236.431 37.56C236.725 37.8267 236.871 38.2 236.871 38.68V57.44C236.871 57.92 236.725 58.3067 236.431 58.6C236.165 58.8667 235.805 59 235.351 59ZM253.349 59.4C251.509 59.4 249.895 59.0533 248.509 58.36C247.122 57.6667 246.029 56.72 245.229 55.52C244.455 54.2933 244.069 52.8667 244.069 51.24V38.64C244.095 38.1867 244.255 37.8267 244.549 37.56C244.842 37.2667 245.202 37.12 245.629 37.12C246.055 37.12 246.415 37.2667 246.709 37.56C247.002 37.8533 247.149 38.2267 247.149 38.68V44.36H253.669C255.402 44.36 256.922 44.6667 258.229 45.28C259.562 45.8933 260.589 46.76 261.309 47.88C262.055 49 262.429 50.2933 262.429 51.76C262.429 53.2267 262.042 54.5467 261.269 55.72C260.522 56.8667 259.469 57.7733 258.109 58.44C256.749 59.08 255.162 59.4 253.349 59.4ZM253.349 56.56C255.082 56.56 256.522 56.16 257.669 55.36C258.815 54.56 259.389 53.36 259.389 51.76C259.389 50.2667 258.882 49.1067 257.869 48.28C256.855 47.4533 255.455 47.04 253.669 47.04H247.149V51.24C247.149 52.2533 247.402 53.1733 247.909 54C248.442 54.8 249.162 55.4267 250.069 55.88C251.002 56.3333 252.095 56.56 253.349 56.56ZM277.504 59.2C275.344 59.2 273.424 58.7333 271.744 57.8C270.091 56.84 268.784 55.52 267.824 53.84C266.891 52.16 266.424 50.24 266.424 48.08C266.424 45.8933 266.864 43.9733 267.744 42.32C268.651 40.64 269.891 39.32 271.464 38.36C273.038 37.4 274.851 36.92 276.904 36.92C278.931 36.92 280.691 37.3867 282.184 38.32C283.704 39.2267 284.878 40.4933 285.704 42.12C286.531 43.7467 286.944 45.6 286.944 47.68C286.944 48.1067 286.811 48.4533 286.544 48.72C286.278 48.96 285.931 49.08 285.504 49.08H268.504V46.52H285.824L284.104 47.76C284.131 46.2133 283.851 44.8267 283.264 43.6C282.678 42.3733 281.838 41.4133 280.744 40.72C279.678 40.0267 278.398 39.68 276.904 39.68C275.384 39.68 274.051 40.04 272.904 40.76C271.758 41.48 270.864 42.48 270.224 43.76C269.611 45.0133 269.304 46.4533 269.304 48.08C269.304 49.7067 269.651 51.1467 270.344 52.4C271.064 53.6533 272.038 54.64 273.264 55.36C274.491 56.08 275.904 56.44 277.504 56.44C278.464 56.44 279.424 56.28 280.384 55.96C281.371 55.6133 282.158 55.1867 282.744 54.68C283.038 54.44 283.371 54.32 283.744 54.32C284.118 54.2933 284.438 54.3867 284.704 54.6C285.051 54.92 285.224 55.2667 285.224 55.64C285.251 56.0133 285.104 56.3333 284.784 56.6C283.904 57.3467 282.784 57.9733 281.424 58.48C280.064 58.96 278.758 59.2 277.504 59.2ZM293.715 59C293.235 59 292.848 58.8667 292.555 58.6C292.288 58.3067 292.155 57.92 292.155 57.44V38.68C292.155 38.2 292.288 37.8267 292.555 37.56C292.848 37.2667 293.235 37.12 293.715 37.12C294.408 37.12 294.968 37.44 295.395 38.08L304.235 50.88L313.075 38.08C313.501 37.44 314.061 37.12 314.755 37.12C315.235 37.12 315.608 37.2667 315.875 37.56C316.168 37.8267 316.315 38.2 316.315 38.68V57.44C316.315 57.92 316.168 58.3067 315.875 58.6C315.608 58.8667 315.235 59 314.755 59C314.275 59 313.901 58.8667 313.635 58.6C313.368 58.3067 313.235 57.92 313.235 57.44V40.68L314.235 41L305.675 53.36C305.248 53.9733 304.755 54.28 304.195 54.28C303.635 54.28 303.155 53.9733 302.755 53.36L294.195 41.12L295.235 40.8V57.44C295.235 57.92 295.101 58.3067 294.835 58.6C294.568 58.8667 294.195 59 293.715 59ZM344.761 59.24C342.867 59.24 341.174 58.8533 339.681 58.08C338.187 57.28 337.001 56.12 336.121 54.6C335.267 53.08 334.841 51.2267 334.841 49.04V38.64C334.841 38.2133 334.987 37.8533 335.281 37.56C335.574 37.2667 335.934 37.12 336.361 37.12C336.814 37.12 337.187 37.2667 337.481 37.56C337.774 37.8533 337.921 38.2133 337.921 38.64V49.04C337.921 50.6933 338.227 52.0533 338.841 53.12C339.481 54.1867 340.334 54.9867 341.401 55.52C342.494 56.0533 343.721 56.32 345.081 56.32C346.387 56.32 347.561 56.0667 348.601 55.56C349.667 55.0533 350.507 54.36 351.121 53.48C351.734 52.6 352.041 51.6 352.041 50.48H354.241C354.161 52.16 353.694 53.6667 352.841 55C352.014 56.3067 350.894 57.3467 349.481 58.12C348.067 58.8667 346.494 59.24 344.761 59.24ZM353.561 59C353.107 59 352.734 58.8667 352.441 58.6C352.174 58.3067 352.041 57.92 352.041 57.44V38.64C352.041 38.1867 352.174 37.8267 352.441 37.56C352.734 37.2667 353.107 37.12 353.561 37.12C354.014 37.12 354.387 37.2667 354.681 37.56C354.974 37.8267 355.121 38.1867 355.121 38.64V57.44C355.121 57.92 354.974 58.3067 354.681 58.6C354.387 58.8667 354.014 59 353.561 59ZM369.231 59.36C368.084 59.36 366.964 59.2133 365.871 58.92C364.778 58.6 363.791 58.1733 362.911 57.64C362.031 57.08 361.338 56.4667 360.831 55.8C360.564 55.4533 360.458 55.08 360.511 54.68C360.591 54.28 360.831 53.96 361.231 53.72C361.524 53.5333 361.871 53.4933 362.271 53.6C362.698 53.68 363.044 53.8667 363.311 54.16C363.978 54.8533 364.818 55.4267 365.831 55.88C366.844 56.3333 367.964 56.56 369.191 56.56C370.791 56.56 372.084 56.2267 373.071 55.56C374.084 54.8933 374.591 53.9467 374.591 52.72C374.591 51.6533 374.191 50.76 373.391 50.04C372.618 49.32 371.644 48.9333 370.471 48.88H368.431C367.924 48.88 367.511 48.76 367.191 48.52C366.871 48.2533 366.711 47.9333 366.711 47.56C366.711 47.1867 366.871 46.88 367.191 46.64C367.511 46.4 367.924 46.28 368.431 46.28H370.471C371.458 46.2533 372.258 45.92 372.871 45.28C373.484 44.64 373.791 43.8533 373.791 42.92C373.791 41.96 373.364 41.1733 372.511 40.56C371.684 39.9467 370.564 39.64 369.151 39.64C367.844 39.64 366.751 39.8533 365.871 40.28C364.991 40.7067 364.284 41.2533 363.751 41.92C363.458 42.24 363.111 42.44 362.711 42.52C362.338 42.5733 361.978 42.4933 361.631 42.28C361.284 42.0933 361.084 41.8 361.031 41.4C361.004 41 361.124 40.6267 361.391 40.28C362.244 39.2933 363.324 38.4667 364.631 37.8C365.964 37.1333 367.458 36.8 369.111 36.8C370.604 36.8 371.924 37.0667 373.071 37.6C374.244 38.1067 375.164 38.8133 375.831 39.72C376.498 40.6 376.831 41.5867 376.831 42.68C376.831 43.56 376.591 44.3733 376.111 45.12C375.658 45.84 375.031 46.44 374.231 46.92C373.458 47.3733 372.591 47.64 371.631 47.72V47.28C372.751 47.28 373.764 47.52 374.671 48C375.578 48.48 376.298 49.1467 376.831 50C377.364 50.8267 377.631 51.76 377.631 52.8C377.631 54.0533 377.258 55.1733 376.511 56.16C375.791 57.1467 374.791 57.9333 373.511 58.52C372.258 59.08 370.831 59.36 369.231 59.36ZM392.498 59.2C390.391 59.2 388.524 58.7333 386.898 57.8C385.271 56.84 383.991 55.52 383.058 53.84C382.151 52.16 381.698 50.24 381.698 48.08C381.698 45.8933 382.178 43.96 383.138 42.28C384.098 40.6 385.418 39.2933 387.098 38.36C388.778 37.4 390.684 36.92 392.818 36.92C394.978 36.92 396.884 37.4 398.538 38.36C400.218 39.2933 401.524 40.6 402.458 42.28C403.418 43.96 403.911 45.8933 403.938 48.08L402.138 49.04C402.138 51.0133 401.724 52.7733 400.898 54.32C400.071 55.84 398.924 57.04 397.458 57.92C396.018 58.7733 394.364 59.2 392.498 59.2ZM392.898 67.64C390.791 67.64 388.938 67.24 387.338 66.44C385.738 65.6667 384.418 64.6 383.378 63.24C383.084 62.92 382.951 62.5733 382.978 62.2C383.031 61.8267 383.231 61.52 383.578 61.28C383.924 61.04 384.311 60.96 384.738 61.04C385.164 61.12 385.498 61.32 385.738 61.64C386.511 62.6 387.498 63.3733 388.698 63.96C389.924 64.5467 391.338 64.84 392.938 64.84C394.431 64.84 395.778 64.48 396.978 63.76C398.178 63.04 399.124 62.0267 399.818 60.72C400.538 59.4133 400.898 57.88 400.898 56.12V50.04L402.058 47.72L403.938 48.08V56.24C403.938 58.4 403.458 60.3333 402.498 62.04C401.538 63.7733 400.231 65.1333 398.578 66.12C396.924 67.1333 395.031 67.64 392.898 67.64ZM392.818 56.4C394.391 56.4 395.778 56.0533 396.978 55.36C398.204 54.64 399.164 53.6533 399.858 52.4C400.551 51.1467 400.898 49.7067 400.898 48.08C400.898 46.4533 400.551 45.0133 399.858 43.76C399.164 42.48 398.204 41.4933 396.978 40.8C395.778 40.08 394.391 39.72 392.818 39.72C391.244 39.72 389.844 40.08 388.618 40.8C387.391 41.4933 386.431 42.48 385.738 43.76C385.044 45.0133 384.698 46.4533 384.698 48.08C384.698 49.7067 385.044 51.1467 385.738 52.4C386.431 53.6533 387.391 54.64 388.618 55.36C389.844 56.0533 391.244 56.4 392.818 56.4ZM419.568 59.2C417.515 59.2 415.675 58.72 414.048 57.76C412.421 56.7733 411.128 55.44 410.168 53.76C409.235 52.08 408.768 50.1867 408.768 48.08C408.768 45.9467 409.248 44.04 410.208 42.36C411.195 40.68 412.528 39.36 414.208 38.4C415.888 37.4133 417.781 36.92 419.888 36.92C421.995 36.92 423.875 37.4133 425.528 38.4C427.208 39.36 428.528 40.68 429.488 42.36C430.475 44.04 430.981 45.9467 431.008 48.08L429.768 49.04C429.768 50.96 429.315 52.6933 428.408 54.24C427.528 55.76 426.315 56.9733 424.768 57.88C423.248 58.76 421.515 59.2 419.568 59.2ZM419.888 56.4C421.435 56.4 422.808 56.04 424.008 55.32C425.235 54.6 426.195 53.6133 426.888 52.36C427.608 51.08 427.968 49.6533 427.968 48.08C427.968 46.48 427.608 45.0533 426.888 43.8C426.195 42.5467 425.235 41.56 424.008 40.84C422.808 40.0933 421.435 39.72 419.888 39.72C418.368 39.72 416.995 40.0933 415.768 40.84C414.541 41.56 413.568 42.5467 412.848 43.8C412.128 45.0533 411.768 46.48 411.768 48.08C411.768 49.6533 412.128 51.08 412.848 52.36C413.568 53.6133 414.541 54.6 415.768 55.32C416.995 56.04 418.368 56.4 419.888 56.4ZM429.448 59C428.995 59 428.621 58.8667 428.328 58.6C428.035 58.3067 427.888 57.9333 427.888 57.48V50.64L428.648 47.48L431.008 48.08V57.48C431.008 57.9333 430.861 58.3067 430.568 58.6C430.275 58.8667 429.901 59 429.448 59ZM466.558 59C466.105 59 465.732 58.8667 465.438 58.6C465.145 58.3067 464.998 57.9333 464.998 57.48V45.96C464.998 44.0667 464.505 42.5733 463.518 41.48C462.532 40.36 461.265 39.8 459.718 39.8C458.065 39.8 456.705 40.36 455.638 41.48C454.598 42.5733 454.092 44.04 454.118 45.88H451.358C451.385 44.0933 451.772 42.52 452.518 41.16C453.265 39.8 454.292 38.7467 455.598 38C456.905 37.2533 458.385 36.88 460.038 36.88C461.612 36.88 462.998 37.2533 464.198 38C465.425 38.7467 466.372 39.8 467.038 41.16C467.732 42.52 468.078 44.12 468.078 45.96V57.48C468.078 57.9333 467.932 58.3067 467.638 58.6C467.372 58.8667 467.012 59 466.558 59ZM438.558 59C438.078 59 437.692 58.8667 437.398 58.6C437.132 58.3067 436.998 57.9333 436.998 57.48V38.68C436.998 38.2267 437.132 37.8533 437.398 37.56C437.692 37.2667 438.078 37.12 438.558 37.12C439.012 37.12 439.372 37.2667 439.638 37.56C439.932 37.8533 440.078 38.2267 440.078 38.68V57.48C440.078 57.9333 439.932 58.3067 439.638 58.6C439.372 58.8667 439.012 59 438.558 59ZM452.598 59C452.145 59 451.772 58.8667 451.478 58.6C451.185 58.3067 451.038 57.9333 451.038 57.48V45.96C451.038 44.0667 450.545 42.5733 449.558 41.48C448.572 40.36 447.305 39.8 445.758 39.8C444.105 39.8 442.745 40.3467 441.678 41.44C440.612 42.5067 440.078 43.9067 440.078 45.64H437.878C437.932 43.9333 438.305 42.4267 438.998 41.12C439.718 39.7867 440.692 38.7467 441.918 38C443.145 37.2533 444.532 36.88 446.078 36.88C447.652 36.88 449.038 37.2533 450.238 38C451.465 38.7467 452.412 39.8 453.078 41.16C453.772 42.52 454.118 44.12 454.118 45.96V57.48C454.118 57.9333 453.972 58.3067 453.678 58.6C453.412 58.8667 453.052 59 452.598 59ZM484.809 59.2C482.649 59.2 480.729 58.7333 479.049 57.8C477.396 56.84 476.089 55.52 475.129 53.84C474.196 52.16 473.729 50.24 473.729 48.08C473.729 45.8933 474.169 43.9733 475.049 42.32C475.956 40.64 477.196 39.32 478.769 38.36C480.342 37.4 482.156 36.92 484.209 36.92C486.236 36.92 487.996 37.3867 489.489 38.32C491.009 39.2267 492.182 40.4933 493.009 42.12C493.836 43.7467 494.249 45.6 494.249 47.68C494.249 48.1067 494.116 48.4533 493.849 48.72C493.582 48.96 493.236 49.08 492.809 49.08H475.809V46.52H493.129L491.409 47.76C491.436 46.2133 491.156 44.8267 490.569 43.6C489.982 42.3733 489.142 41.4133 488.049 40.72C486.982 40.0267 485.702 39.68 484.209 39.68C482.689 39.68 481.356 40.04 480.209 40.76C479.062 41.48 478.169 42.48 477.529 43.76C476.916 45.0133 476.609 46.4533 476.609 48.08C476.609 49.7067 476.956 51.1467 477.649 52.4C478.369 53.6533 479.342 54.64 480.569 55.36C481.796 56.08 483.209 56.44 484.809 56.44C485.769 56.44 486.729 56.28 487.689 55.96C488.676 55.6133 489.462 55.1867 490.049 54.68C490.342 54.44 490.676 54.32 491.049 54.32C491.422 54.2933 491.742 54.3867 492.009 54.6C492.356 54.92 492.529 55.2667 492.529 55.64C492.556 56.0133 492.409 56.3333 492.089 56.6C491.209 57.3467 490.089 57.9733 488.729 58.48C487.369 58.96 486.062 59.2 484.809 59.2ZM507.619 37.12C507.939 37.12 508.233 37.2 508.499 37.36C508.766 37.52 508.979 37.7867 509.139 38.16L517.819 57.04C518.006 57.4133 518.019 57.7733 517.859 58.12C517.726 58.44 517.473 58.6933 517.099 58.88C516.673 59.0667 516.286 59.1067 515.939 59C515.593 58.8667 515.313 58.6 515.099 58.2L506.819 39.76H508.619L500.179 58.16C499.993 58.56 499.699 58.8267 499.299 58.96C498.926 59.0667 498.539 59.0267 498.139 58.84C497.766 58.6533 497.499 58.4 497.339 58.08C497.206 57.7333 497.219 57.3733 497.379 57L506.179 38.16C506.499 37.4667 506.979 37.12 507.619 37.12ZM532.255 59.4C530.415 59.4 528.802 59.0533 527.415 58.36C526.028 57.6667 524.935 56.72 524.135 55.52C523.362 54.2933 522.975 52.8667 522.975 51.24V38.64C523.002 38.1867 523.162 37.8267 523.455 37.56C523.748 37.2667 524.108 37.12 524.535 37.12C524.962 37.12 525.322 37.2667 525.615 37.56C525.908 37.8533 526.055 38.2267 526.055 38.68V44.36H532.575C534.308 44.36 535.828 44.6667 537.135 45.28C538.468 45.8933 539.495 46.76 540.215 47.88C540.962 49 541.335 50.2933 541.335 51.76C541.335 53.2267 540.948 54.5467 540.175 55.72C539.428 56.8667 538.375 57.7733 537.015 58.44C535.655 59.08 534.068 59.4 532.255 59.4ZM532.255 56.56C533.988 56.56 535.428 56.16 536.575 55.36C537.722 54.56 538.295 53.36 538.295 51.76C538.295 50.2667 537.788 49.1067 536.775 48.28C535.762 47.4533 534.362 47.04 532.575 47.04H526.055V51.24C526.055 52.2533 526.308 53.1733 526.815 54C527.348 54.8 528.068 55.4267 528.975 55.88C529.908 56.3333 531.002 56.56 532.255 56.56ZM556.251 59.2C554.144 59.2 552.264 58.72 550.611 57.76C548.984 56.7733 547.691 55.44 546.731 53.76C545.797 52.08 545.331 50.1867 545.331 48.08C545.331 45.9467 545.784 44.04 546.691 42.36C547.597 40.68 548.837 39.36 550.411 38.4C551.984 37.4133 553.797 36.92 555.851 36.92C557.477 36.92 558.971 37.24 560.331 37.88C561.717 38.52 562.931 39.48 563.971 40.76C564.264 41.08 564.371 41.4267 564.291 41.8C564.211 42.1467 563.984 42.4533 563.611 42.72C563.317 42.9333 562.984 43.0133 562.611 42.96C562.264 42.88 561.957 42.68 561.691 42.36C560.144 40.6 558.197 39.72 555.851 39.72C554.357 39.72 553.037 40.08 551.891 40.8C550.771 41.52 549.891 42.5067 549.251 43.76C548.637 45.0133 548.331 46.4533 548.331 48.08C548.331 49.68 548.664 51.1067 549.331 52.36C549.997 53.6133 550.931 54.6 552.131 55.32C553.331 56.04 554.704 56.4 556.251 56.4C557.291 56.4 558.237 56.2667 559.091 56C559.971 55.7067 560.744 55.2667 561.411 54.68C561.731 54.4133 562.064 54.2667 562.411 54.24C562.757 54.2133 563.077 54.32 563.371 54.56C563.691 54.8533 563.864 55.1867 563.891 55.56C563.944 55.9333 563.824 56.2533 563.531 56.52C561.584 58.3067 559.157 59.2 556.251 59.2ZM599.84 59C599.386 59 599.013 58.8667 598.72 58.6C598.426 58.3067 598.28 57.9333 598.28 57.48V45.96C598.28 44.0667 597.786 42.5733 596.8 41.48C595.813 40.36 594.546 39.8 593 39.8C591.346 39.8 589.986 40.36 588.92 41.48C587.88 42.5733 587.373 44.04 587.4 45.88H584.64C584.666 44.0933 585.053 42.52 585.8 41.16C586.546 39.8 587.573 38.7467 588.88 38C590.186 37.2533 591.666 36.88 593.32 36.88C594.893 36.88 596.28 37.2533 597.48 38C598.706 38.7467 599.653 39.8 600.32 41.16C601.013 42.52 601.36 44.12 601.36 45.96V57.48C601.36 57.9333 601.213 58.3067 600.92 58.6C600.653 58.8667 600.293 59 599.84 59ZM571.84 59C571.36 59 570.973 58.8667 570.68 58.6C570.413 58.3067 570.28 57.9333 570.28 57.48V38.68C570.28 38.2267 570.413 37.8533 570.68 37.56C570.973 37.2667 571.36 37.12 571.84 37.12C572.293 37.12 572.653 37.2667 572.92 37.56C573.213 37.8533 573.36 38.2267 573.36 38.68V57.48C573.36 57.9333 573.213 58.3067 572.92 58.6C572.653 58.8667 572.293 59 571.84 59ZM585.88 59C585.426 59 585.053 58.8667 584.76 58.6C584.466 58.3067 584.32 57.9333 584.32 57.48V45.96C584.32 44.0667 583.826 42.5733 582.84 41.48C581.853 40.36 580.586 39.8 579.04 39.8C577.386 39.8 576.026 40.3467 574.96 41.44C573.893 42.5067 573.36 43.9067 573.36 45.64H571.16C571.213 43.9333 571.586 42.4267 572.28 41.12C573 39.7867 573.973 38.7467 575.2 38C576.426 37.2533 577.813 36.88 579.36 36.88C580.933 36.88 582.32 37.2533 583.52 38C584.746 38.7467 585.693 39.8 586.36 41.16C587.053 42.52 587.4 44.12 587.4 45.96V57.48C587.4 57.9333 587.253 58.3067 586.96 58.6C586.693 58.8667 586.333 59 585.88 59ZM609.73 59C609.25 59 608.864 58.8667 608.57 58.6C608.304 58.3067 608.17 57.92 608.17 57.44V38.64C608.197 38.1867 608.344 37.8267 608.61 37.56C608.904 37.2667 609.277 37.12 609.73 37.12C610.184 37.12 610.544 37.2667 610.81 37.56C611.104 37.8267 611.25 38.2 611.25 38.68V46.28H619.69V46.84C621.077 46.84 622.304 47.0933 623.37 47.6C624.464 48.1067 625.304 48.8133 625.89 49.72C626.504 50.6 626.81 51.6133 626.81 52.76C626.81 53.9867 626.504 55.0667 625.89 56C625.304 56.9333 624.464 57.6667 623.37 58.2C622.304 58.7333 621.077 59 619.69 59H609.73ZM611.25 56.16H619.69C620.89 56.16 621.877 55.8533 622.65 55.24C623.424 54.6267 623.81 53.7467 623.81 52.6C623.81 51.4 623.424 50.4933 622.65 49.88C621.877 49.24 620.89 48.92 619.69 48.92H611.25V56.16ZM615.73 48V46.28H619.69C620.624 46.28 621.384 45.9733 621.97 45.36C622.557 44.7467 622.85 43.96 622.85 43C622.85 42.1467 622.53 41.4267 621.89 40.84C621.277 40.2267 620.49 39.92 619.53 39.92H609.77V37.12H619.53C620.757 37.12 621.837 37.3733 622.77 37.88C623.73 38.36 624.477 39.0267 625.01 39.88C625.57 40.7333 625.85 41.72 625.85 42.84C625.85 44.5733 625.264 45.8667 624.09 46.72C622.944 47.5733 621.477 48 619.69 48H615.73ZM641.958 59.2C639.798 59.2 637.878 58.7333 636.198 57.8C634.544 56.84 633.237 55.52 632.278 53.84C631.344 52.16 630.878 50.24 630.878 48.08C630.878 45.8933 631.318 43.9733 632.198 42.32C633.104 40.64 634.344 39.32 635.918 38.36C637.491 37.4 639.304 36.92 641.358 36.92C643.384 36.92 645.144 37.3867 646.638 38.32C648.158 39.2267 649.331 40.4933 650.158 42.12C650.984 43.7467 651.398 45.6 651.398 47.68C651.398 48.1067 651.264 48.4533 650.998 48.72C650.731 48.96 650.384 49.08 649.958 49.08H632.958V46.52H650.278L648.558 47.76C648.584 46.2133 648.304 44.8267 647.718 43.6C647.131 42.3733 646.291 41.4133 645.198 40.72C644.131 40.0267 642.851 39.68 641.358 39.68C639.838 39.68 638.504 40.04 637.358 40.76C636.211 41.48 635.318 42.48 634.678 43.76C634.064 45.0133 633.758 46.4533 633.758 48.08C633.758 49.7067 634.104 51.1467 634.798 52.4C635.518 53.6533 636.491 54.64 637.718 55.36C638.944 56.08 640.358 56.44 641.958 56.44C642.918 56.44 643.878 56.28 644.838 55.96C645.824 55.6133 646.611 55.1867 647.198 54.68C647.491 54.44 647.824 54.32 648.198 54.32C648.571 54.2933 648.891 54.3867 649.158 54.6C649.504 54.92 649.678 55.2667 649.678 55.64C649.704 56.0133 649.558 56.3333 649.238 56.6C648.358 57.3467 647.238 57.9733 645.878 58.48C644.518 58.96 643.211 59.2 641.958 59.2ZM678.127 59.2C676.02 59.2 674.153 58.72 672.527 57.76C670.9 56.8 669.62 55.48 668.687 53.8C667.78 52.0933 667.327 50.1467 667.327 47.96H668.967C668.967 46.0667 669.367 44.4 670.167 42.96C670.993 41.4933 672.113 40.3467 673.527 39.52C674.967 38.6933 676.607 38.28 678.447 38.28C680.447 38.28 682.22 38.72 683.767 39.6C685.34 40.48 686.567 41.7067 687.447 43.28C688.327 44.8533 688.767 46.6533 688.767 48.68C688.767 50.7333 688.313 52.56 687.407 54.16C686.5 55.7333 685.247 56.9733 683.647 57.88C682.047 58.76 680.207 59.2 678.127 59.2ZM678.127 56.4C679.62 56.4 680.94 56.08 682.087 55.44C683.233 54.7733 684.127 53.8667 684.767 52.72C685.433 51.5467 685.767 50.2 685.767 48.68C685.767 47.1867 685.433 45.8667 684.767 44.72C684.127 43.5733 683.233 42.68 682.087 42.04C680.94 41.4 679.62 41.08 678.127 41.08C676.607 41.08 675.26 41.4 674.087 42.04C672.913 42.68 671.993 43.5733 671.327 44.72C670.687 45.8667 670.367 47.1867 670.367 48.68C670.367 50.2 670.687 51.5467 671.327 52.72C671.993 53.8667 672.913 54.7733 674.087 55.44C675.26 56.08 676.607 56.4 678.127 56.4ZM667.327 48.08V44.8C667.353 41.2533 668.3 38.08 670.167 35.28C672.033 32.4533 674.94 30.28 678.887 28.76L684.767 26.44C685.193 26.28 685.567 26.2667 685.887 26.4C686.207 26.5333 686.447 26.8 686.607 27.2C686.74 27.6267 686.74 28 686.607 28.32C686.5 28.64 686.193 28.8933 685.687 29.08L679.447 31.64C677.1 32.5467 675.207 33.6933 673.767 35.08C672.353 36.4667 671.327 38.0267 670.687 39.76C670.047 41.4667 669.727 43.28 669.727 45.2L669.767 48.08H667.327ZM704.732 59.2C702.599 59.2 700.692 58.72 699.012 57.76C697.332 56.8 696.012 55.48 695.052 53.8C694.092 52.12 693.612 50.2133 693.612 48.08C693.612 45.92 694.092 44 695.052 42.32C696.012 40.64 697.332 39.32 699.012 38.36C700.692 37.4 702.599 36.92 704.732 36.92C706.865 36.92 708.759 37.4 710.412 38.36C712.092 39.32 713.412 40.64 714.372 42.32C715.332 44 715.825 45.92 715.852 48.08C715.852 50.2133 715.359 52.12 714.372 53.8C713.412 55.48 712.092 56.8 710.412 57.76C708.759 58.72 706.865 59.2 704.732 59.2ZM704.732 56.4C706.279 56.4 707.665 56.04 708.892 55.32C710.119 54.6 711.079 53.6133 711.772 52.36C712.465 51.1067 712.812 49.68 712.812 48.08C712.812 46.48 712.465 45.0533 711.772 43.8C711.079 42.52 710.119 41.52 708.892 40.8C707.665 40.08 706.279 39.72 704.732 39.72C703.185 39.72 701.799 40.08 700.572 40.8C699.345 41.52 698.372 42.52 697.652 43.8C696.959 45.0533 696.612 46.48 696.612 48.08C696.612 49.68 696.959 51.1067 697.652 52.36C698.372 53.6133 699.345 54.6 700.572 55.32C701.799 56.04 703.185 56.4 704.732 56.4ZM730.002 37.12C730.322 37.12 730.616 37.2 730.882 37.36C731.149 37.52 731.362 37.7867 731.522 38.16L740.202 57.04C740.389 57.4133 740.402 57.7733 740.242 58.12C740.109 58.44 739.856 58.6933 739.482 58.88C739.056 59.0667 738.669 59.1067 738.322 59C737.976 58.8667 737.696 58.6 737.482 58.2L729.202 39.76H731.002L722.562 58.16C722.376 58.56 722.082 58.8267 721.682 58.96C721.309 59.0667 720.922 59.0267 720.522 58.84C720.149 58.6533 719.882 58.4 719.722 58.08C719.589 57.7333 719.602 57.3733 719.762 57L728.562 38.16C728.882 37.4667 729.362 37.12 730.002 37.12ZM754.638 59.4C752.798 59.4 751.184 59.0533 749.798 58.36C748.411 57.6667 747.318 56.72 746.518 55.52C745.744 54.2933 745.358 52.8667 745.358 51.24V38.64C745.384 38.1867 745.544 37.8267 745.838 37.56C746.131 37.2667 746.491 37.12 746.918 37.12C747.344 37.12 747.704 37.2667 747.998 37.56C748.291 37.8533 748.438 38.2267 748.438 38.68V44.36H754.958C756.691 44.36 758.211 44.6667 759.518 45.28C760.851 45.8933 761.878 46.76 762.598 47.88C763.344 49 763.718 50.2933 763.718 51.76C763.718 53.2267 763.331 54.5467 762.558 55.72C761.811 56.8667 760.758 57.7733 759.398 58.44C758.038 59.08 756.451 59.4 754.638 59.4ZM754.638 56.56C756.371 56.56 757.811 56.16 758.958 55.36C760.104 54.56 760.678 53.36 760.678 51.76C760.678 50.2667 760.171 49.1067 759.158 48.28C758.144 47.4533 756.744 47.04 754.958 47.04H748.438V51.24C748.438 52.2533 748.691 53.1733 749.198 54C749.731 54.8 750.451 55.4267 751.358 55.88C752.291 56.3333 753.384 56.56 754.638 56.56ZM790.473 59.28C788.9 59.28 787.5 58.9067 786.273 58.16C785.073 57.4133 784.127 56.36 783.433 55C782.767 53.64 782.433 52.04 782.433 50.2V38.68C782.433 38.2 782.567 37.8267 782.833 37.56C783.127 37.2667 783.5 37.12 783.953 37.12C784.407 37.12 784.78 37.2667 785.073 37.56C785.367 37.8267 785.513 38.2 785.513 38.68V50.2C785.513 51.4533 785.727 52.5467 786.153 53.48C786.607 54.3867 787.233 55.0933 788.033 55.6C788.833 56.08 789.753 56.32 790.793 56.32C792.447 56.32 793.807 55.7867 794.873 54.72C795.94 53.6267 796.473 52.24 796.473 50.56L798.113 50.6C798.06 52.28 797.7 53.7733 797.033 55.08C796.367 56.3867 795.46 57.4133 794.313 58.16C793.193 58.9067 791.913 59.28 790.473 59.28ZM776.513 59.28C774.94 59.28 773.54 58.9067 772.313 58.16C771.113 57.4133 770.167 56.36 769.473 55C768.807 53.64 768.473 52.04 768.473 50.2V38.68C768.473 38.2 768.607 37.8267 768.873 37.56C769.167 37.2667 769.54 37.12 769.993 37.12C770.447 37.12 770.82 37.2667 771.113 37.56C771.407 37.8267 771.553 38.2 771.553 38.68V50.2C771.553 51.4533 771.767 52.5467 772.193 53.48C772.647 54.3867 773.273 55.0933 774.073 55.6C774.873 56.08 775.793 56.32 776.833 56.32C778.487 56.32 779.833 55.7733 780.873 54.68C781.94 53.5867 782.46 52.1333 782.433 50.32H784.073C784.047 52.08 783.7 53.64 783.033 55C782.393 56.3333 781.5 57.3867 780.353 58.16C779.233 58.9067 777.953 59.28 776.513 59.28ZM797.993 59C797.54 59 797.167 58.8667 796.873 58.6C796.607 58.3067 796.473 57.92 796.473 57.44V38.68C796.473 38.2 796.607 37.8267 796.873 37.56C797.167 37.2667 797.54 37.12 797.993 37.12C798.447 37.12 798.82 37.2667 799.113 37.56C799.407 37.8267 799.553 38.2 799.553 38.68V57.44C799.553 57.92 799.407 58.3067 799.113 58.6C798.82 58.8667 798.447 59 797.993 59ZM816.404 59.2C814.351 59.2 812.511 58.72 810.884 57.76C809.257 56.7733 807.964 55.44 807.004 53.76C806.071 52.08 805.604 50.1867 805.604 48.08C805.604 45.9467 806.084 44.04 807.044 42.36C808.031 40.68 809.364 39.36 811.044 38.4C812.724 37.4133 814.617 36.92 816.724 36.92C818.831 36.92 820.711 37.4133 822.364 38.4C824.044 39.36 825.364 40.68 826.324 42.36C827.311 44.04 827.817 45.9467 827.844 48.08L826.604 49.04C826.604 50.96 826.151 52.6933 825.244 54.24C824.364 55.76 823.151 56.9733 821.604 57.88C820.084 58.76 818.351 59.2 816.404 59.2ZM816.724 56.4C818.271 56.4 819.644 56.04 820.844 55.32C822.071 54.6 823.031 53.6133 823.724 52.36C824.444 51.08 824.804 49.6533 824.804 48.08C824.804 46.48 824.444 45.0533 823.724 43.8C823.031 42.5467 822.071 41.56 820.844 40.84C819.644 40.0933 818.271 39.72 816.724 39.72C815.204 39.72 813.831 40.0933 812.604 40.84C811.377 41.56 810.404 42.5467 809.684 43.8C808.964 45.0533 808.604 46.48 808.604 48.08C808.604 49.6533 808.964 51.08 809.684 52.36C810.404 53.6133 811.377 54.6 812.604 55.32C813.831 56.04 815.204 56.4 816.724 56.4ZM826.284 59C825.831 59 825.457 58.8667 825.164 58.6C824.871 58.3067 824.724 57.9333 824.724 57.48V50.64L825.484 47.48L827.844 48.08V57.48C827.844 57.9333 827.697 58.3067 827.404 58.6C827.111 58.8667 826.737 59 826.284 59ZM848.274 59C847.848 59 847.488 58.8667 847.194 58.6C846.928 58.3067 846.794 57.92 846.794 57.44V51.44H840.394V51.04C839.034 51.04 837.821 50.76 836.754 50.2C835.688 49.6133 834.861 48.8133 834.274 47.8C833.688 46.7867 833.394 45.6133 833.394 44.28C833.394 42.8933 833.714 41.6667 834.354 40.6C835.021 39.5067 835.941 38.6533 837.114 38.04C838.288 37.4267 839.634 37.12 841.154 37.12H848.274C848.754 37.12 849.128 37.2667 849.394 37.56C849.688 37.8267 849.834 38.2 849.834 38.68V57.48C849.808 57.9333 849.648 58.3067 849.354 58.6C849.088 58.8667 848.728 59 848.274 59ZM833.314 58.6C832.994 58.3067 832.834 57.9867 832.834 57.64C832.861 57.2933 832.994 56.96 833.234 56.64L838.834 49.52L842.794 49.6L835.594 58.44C835.274 58.84 834.874 59.0267 834.394 59C833.941 59 833.581 58.8667 833.314 58.6ZM841.154 48.8H846.794V39.96H841.154C839.794 39.96 838.661 40.36 837.754 41.16C836.848 41.9333 836.394 42.9733 836.394 44.28C836.394 45.6933 836.848 46.8 837.754 47.6C838.661 48.4 839.794 48.8 841.154 48.8ZM887.476 59C887.023 59 886.65 58.8667 886.356 58.6C886.063 58.3067 885.916 57.92 885.916 57.44V38.68C885.916 38.2 886.063 37.8267 886.356 37.56C886.65 37.2667 887.023 37.12 887.476 37.12C887.93 37.12 888.29 37.2667 888.556 37.56C888.823 37.8267 888.956 38.2 888.956 38.68V57.44C888.956 57.92 888.823 58.3067 888.556 58.6C888.29 58.8667 887.93 59 887.476 59ZM870.276 59C869.823 59 869.45 58.8667 869.156 58.6C868.89 58.3067 868.756 57.92 868.756 57.44V38.68C868.756 38.2 868.89 37.8267 869.156 37.56C869.45 37.2667 869.823 37.12 870.276 37.12C870.73 37.12 871.09 37.2667 871.356 37.56C871.65 37.8267 871.796 38.2 871.796 38.68V57.44C871.796 57.92 871.65 58.3067 871.356 58.6C871.09 58.8667 870.73 59 870.276 59ZM871.276 49.36V46.6H886.996V49.36H871.276ZM905.779 59.2C903.726 59.2 901.886 58.72 900.259 57.76C898.632 56.7733 897.339 55.44 896.379 53.76C895.446 52.08 894.979 50.1867 894.979 48.08C894.979 45.9467 895.459 44.04 896.419 42.36C897.406 40.68 898.739 39.36 900.419 38.4C902.099 37.4133 903.992 36.92 906.099 36.92C908.206 36.92 910.086 37.4133 911.739 38.4C913.419 39.36 914.739 40.68 915.699 42.36C916.686 44.04 917.192 45.9467 917.219 48.08L915.979 49.04C915.979 50.96 915.526 52.6933 914.619 54.24C913.739 55.76 912.526 56.9733 910.979 57.88C909.459 58.76 907.726 59.2 905.779 59.2ZM906.099 56.4C907.646 56.4 909.019 56.04 910.219 55.32C911.446 54.6 912.406 53.6133 913.099 52.36C913.819 51.08 914.179 49.6533 914.179 48.08C914.179 46.48 913.819 45.0533 913.099 43.8C912.406 42.5467 911.446 41.56 910.219 40.84C909.019 40.0933 907.646 39.72 906.099 39.72C904.579 39.72 903.206 40.0933 901.979 40.84C900.752 41.56 899.779 42.5467 899.059 43.8C898.339 45.0533 897.979 46.48 897.979 48.08C897.979 49.6533 898.339 51.08 899.059 52.36C899.779 53.6133 900.752 54.6 901.979 55.32C903.206 56.04 904.579 56.4 906.099 56.4ZM915.659 59C915.206 59 914.832 58.8667 914.539 58.6C914.246 58.3067 914.099 57.9333 914.099 57.48V50.64L914.859 47.48L917.219 48.08V57.48C917.219 57.9333 917.072 58.3067 916.779 58.6C916.486 58.8667 916.112 59 915.659 59ZM929.889 59.2C928.316 59.2 926.903 58.96 925.649 58.48C924.396 58 923.396 57.32 922.649 56.44C921.929 55.56 921.569 54.52 921.569 53.32C921.569 52.3067 921.836 51.3867 922.369 50.56C922.929 49.7333 923.809 49.0133 925.009 48.4C926.236 47.76 927.836 47.2267 929.809 46.8C931.596 46.4 932.823 45.8933 933.489 45.28C934.183 44.64 934.529 43.84 934.529 42.88C934.529 41.9467 934.129 41.1867 933.329 40.6C932.529 39.9867 931.423 39.68 930.009 39.68C928.889 39.68 927.849 39.88 926.889 40.28C925.956 40.6533 925.183 41.2 924.569 41.92C924.276 42.24 923.943 42.44 923.569 42.52C923.196 42.6 922.876 42.56 922.609 42.4C922.183 42.16 921.929 41.8533 921.849 41.48C921.769 41.08 921.863 40.72 922.129 40.4C922.903 39.36 923.956 38.52 925.289 37.88C926.623 37.24 928.183 36.92 929.969 36.92C931.436 36.92 932.743 37.16 933.889 37.64C935.036 38.0933 935.929 38.7733 936.569 39.68C937.209 40.5867 937.529 41.6933 937.529 43C937.529 44.3867 936.996 45.6267 935.929 46.72C934.863 47.7867 933.089 48.6 930.609 49.16C928.343 49.6667 926.783 50.24 925.929 50.88C925.076 51.52 924.649 52.32 924.649 53.28C924.649 54.32 925.063 55.1067 925.889 55.64C926.743 56.1467 928.049 56.4 929.809 56.4C931.143 56.4 932.329 56.24 933.369 55.92C934.436 55.6 935.316 55.04 936.009 54.24C936.276 53.9467 936.596 53.76 936.969 53.68C937.343 53.5733 937.716 53.6667 938.089 53.96C938.436 54.2533 938.623 54.5867 938.649 54.96C938.676 55.3333 938.543 55.68 938.249 56C937.343 56.9867 936.116 57.7733 934.569 58.36C933.023 58.92 931.463 59.2 929.889 59.2ZM945.433 68.36C944.953 68.36 944.567 68.2133 944.273 67.92C944.007 67.6533 943.873 67.28 943.873 66.8V47.92C943.9 45.84 944.393 43.9733 945.353 42.32C946.34 40.64 947.66 39.32 949.313 38.36C950.993 37.4 952.873 36.92 954.953 36.92C957.087 36.92 958.993 37.4133 960.673 38.4C962.353 39.36 963.673 40.68 964.633 42.36C965.62 44.04 966.113 45.9467 966.113 48.08C966.113 50.1867 965.633 52.08 964.673 53.76C963.74 55.44 962.46 56.7733 960.833 57.76C959.207 58.72 957.367 59.2 955.313 59.2C953.527 59.2 951.9 58.8267 950.433 58.08C948.993 57.3067 947.833 56.2933 946.953 55.04V66.8C946.953 67.28 946.807 67.6533 946.513 67.92C946.247 68.2133 945.887 68.36 945.433 68.36ZM954.953 56.4C956.5 56.4 957.887 56.04 959.113 55.32C960.34 54.6 961.3 53.6133 961.993 52.36C962.713 51.08 963.073 49.6533 963.073 48.08C963.073 46.48 962.713 45.0533 961.993 43.8C961.3 42.5467 960.34 41.56 959.113 40.84C957.887 40.0933 956.5 39.72 954.953 39.72C953.433 39.72 952.06 40.0933 950.833 40.84C949.607 41.56 948.647 42.5467 947.953 43.8C947.26 45.0533 946.913 46.48 946.913 48.08C946.913 49.6533 947.26 51.08 947.953 52.36C948.647 53.6133 949.607 54.6 950.833 55.32C952.06 56.04 953.433 56.4 954.953 56.4ZM970.784 68.56C970.197 68.5867 969.61 68.5067 969.024 68.32C968.464 68.16 967.904 67.92 967.344 67.6C966.917 67.3333 966.65 66.9867 966.544 66.56C966.41 66.16 966.49 65.7733 966.784 65.4C967.05 65.0533 967.37 64.8667 967.744 64.84C968.144 64.84 968.557 64.9467 968.984 65.16C969.277 65.3467 969.57 65.48 969.864 65.56C970.157 65.64 970.49 65.68 970.864 65.68C971.744 65.6533 972.584 65.24 973.384 64.44C974.21 63.64 974.957 62.48 975.624 60.96L985.584 37.96C985.744 37.56 986.01 37.2933 986.384 37.16C986.784 37 987.184 37.0133 987.584 37.2C987.957 37.36 988.197 37.6267 988.304 38C988.437 38.3733 988.41 38.7733 988.224 39.2L978.224 62.16C977.37 64.08 976.29 65.6267 974.984 66.8C973.704 67.9733 972.304 68.56 970.784 68.56ZM979.144 58.32C978.744 58.5067 978.37 58.5467 978.024 58.44C977.677 58.3067 977.397 58.04 977.184 57.64L968.264 39.16C968.077 38.76 968.05 38.3867 968.184 38.04C968.317 37.6933 968.584 37.4267 968.984 37.24C969.384 37.0533 969.757 37.0267 970.104 37.16C970.45 37.2667 970.717 37.52 970.904 37.92L979.704 56.32C979.89 56.72 979.944 57.1067 979.864 57.48C979.784 57.8533 979.544 58.1333 979.144 58.32ZM1000.25 59.36C999.1 59.36 997.98 59.2133 996.887 58.92C995.793 58.6 994.807 58.1733 993.927 57.64C993.047 57.08 992.353 56.4667 991.847 55.8C991.58 55.4533 991.473 55.08 991.527 54.68C991.607 54.28 991.847 53.96 992.247 53.72C992.54 53.5333 992.887 53.4933 993.287 53.6C993.713 53.68 994.06 53.8667 994.327 54.16C994.993 54.8533 995.833 55.4267 996.847 55.88C997.86 56.3333 998.98 56.56 1000.21 56.56C1001.81 56.56 1003.1 56.2267 1004.09 55.56C1005.1 54.8933 1005.61 53.9467 1005.61 52.72C1005.61 51.6533 1005.21 50.76 1004.41 50.04C1003.63 49.32 1002.66 48.9333 1001.49 48.88H999.447C998.94 48.88 998.527 48.76 998.207 48.52C997.887 48.2533 997.727 47.9333 997.727 47.56C997.727 47.1867 997.887 46.88 998.207 46.64C998.527 46.4 998.94 46.28 999.447 46.28H1001.49C1002.47 46.2533 1003.27 45.92 1003.89 45.28C1004.5 44.64 1004.81 43.8533 1004.81 42.92C1004.81 41.96 1004.38 41.1733 1003.53 40.56C1002.7 39.9467 1001.58 39.64 1000.17 39.64C998.86 39.64 997.767 39.8533 996.887 40.28C996.007 40.7067 995.3 41.2533 994.767 41.92C994.473 42.24 994.127 42.44 993.727 42.52C993.353 42.5733 992.993 42.4933 992.647 42.28C992.3 42.0933 992.1 41.8 992.047 41.4C992.02 41 992.14 40.6267 992.407 40.28C993.26 39.2933 994.34 38.4667 995.647 37.8C996.98 37.1333 998.473 36.8 1000.13 36.8C1001.62 36.8 1002.94 37.0667 1004.09 37.6C1005.26 38.1067 1006.18 38.8133 1006.85 39.72C1007.51 40.6 1007.85 41.5867 1007.85 42.68C1007.85 43.56 1007.61 44.3733 1007.13 45.12C1006.67 45.84 1006.05 46.44 1005.25 46.92C1004.47 47.3733 1003.61 47.64 1002.65 47.72V47.28C1003.77 47.28 1004.78 47.52 1005.69 48C1006.59 48.48 1007.31 49.1467 1007.85 50C1008.38 50.8267 1008.65 51.76 1008.65 52.8C1008.65 54.0533 1008.27 55.1733 1007.53 56.16C1006.81 57.1467 1005.81 57.9333 1004.53 58.52C1003.27 59.08 1001.85 59.36 1000.25 59.36ZM1030.87 58.6C1030.61 58.8667 1030.25 59 1029.79 59C1029.37 59 1029.02 58.8533 1028.75 58.56L1019.19 48.08L1028.35 37.6C1028.62 37.3067 1028.95 37.1467 1029.35 37.12C1029.75 37.0933 1030.1 37.2 1030.39 37.44C1030.71 37.7333 1030.89 38.0667 1030.91 38.44C1030.94 38.7867 1030.82 39.12 1030.55 39.44L1023.03 47.92L1030.95 56.64C1031.22 56.9333 1031.35 57.2667 1031.35 57.64C1031.35 57.9867 1031.19 58.3067 1030.87 58.6ZM1015.35 59C1014.9 59 1014.54 58.8667 1014.27 58.6C1014.01 58.3067 1013.87 57.9333 1013.87 57.48V38.68C1013.87 38.2 1014.01 37.8267 1014.27 37.56C1014.54 37.2667 1014.9 37.12 1015.35 37.12C1015.83 37.12 1016.21 37.2667 1016.47 37.56C1016.77 37.8267 1016.91 38.2 1016.91 38.68V46.6H1021.79V49.4H1016.91V57.48C1016.91 57.9333 1016.77 58.3067 1016.47 58.6C1016.21 58.8667 1015.83 59 1015.35 59ZM1043.98 59.2C1041.93 59.2 1040.09 58.72 1038.46 57.76C1036.84 56.7733 1035.54 55.44 1034.58 53.76C1033.65 52.08 1033.18 50.1867 1033.18 48.08C1033.18 45.9467 1033.66 44.04 1034.62 42.36C1035.61 40.68 1036.94 39.36 1038.62 38.4C1040.3 37.4133 1042.2 36.92 1044.3 36.92C1046.41 36.92 1048.29 37.4133 1049.94 38.4C1051.62 39.36 1052.94 40.68 1053.9 42.36C1054.89 44.04 1055.4 45.9467 1055.42 48.08L1054.18 49.04C1054.18 50.96 1053.73 52.6933 1052.82 54.24C1051.94 55.76 1050.73 56.9733 1049.18 57.88C1047.66 58.76 1045.93 59.2 1043.98 59.2ZM1044.3 56.4C1045.85 56.4 1047.22 56.04 1048.42 55.32C1049.65 54.6 1050.61 53.6133 1051.3 52.36C1052.02 51.08 1052.38 49.6533 1052.38 48.08C1052.38 46.48 1052.02 45.0533 1051.3 43.8C1050.61 42.5467 1049.65 41.56 1048.42 40.84C1047.22 40.0933 1045.85 39.72 1044.3 39.72C1042.78 39.72 1041.41 40.0933 1040.18 40.84C1038.96 41.56 1037.98 42.5467 1037.26 43.8C1036.54 45.0533 1036.18 46.48 1036.18 48.08C1036.18 49.6533 1036.54 51.08 1037.26 52.36C1037.98 53.6133 1038.96 54.6 1040.18 55.32C1041.41 56.04 1042.78 56.4 1044.3 56.4ZM1053.86 59C1053.41 59 1053.04 58.8667 1052.74 58.6C1052.45 58.3067 1052.3 57.9333 1052.3 57.48V50.64L1053.06 47.48L1055.42 48.08V57.48C1055.42 57.9333 1055.28 58.3067 1054.98 58.6C1054.69 58.8667 1054.32 59 1053.86 59ZM1061.05 65.48C1060.79 65.48 1060.57 65.4 1060.41 65.24C1060.28 65.1067 1060.21 64.92 1060.21 64.68C1060.21 64.28 1060.33 63.9067 1060.57 63.56C1060.81 63.24 1061.05 62.8933 1061.29 62.52C1061.56 62.1467 1061.69 61.6933 1061.69 61.16C1061.69 60.68 1061.6 60.28 1061.41 59.96C1061.23 59.64 1061 59.3467 1060.73 59.08C1060.49 58.84 1060.28 58.5733 1060.09 58.28C1059.91 57.96 1059.81 57.5733 1059.81 57.12C1059.81 56.4533 1060.03 55.92 1060.45 55.52C1060.91 55.12 1061.47 54.92 1062.13 54.92C1062.93 54.92 1063.59 55.24 1064.09 55.88C1064.6 56.4933 1064.85 57.36 1064.85 58.48C1064.85 59.2267 1064.75 60.0133 1064.53 60.84C1064.32 61.6667 1064.03 62.4267 1063.65 63.12C1063.28 63.84 1062.87 64.4133 1062.41 64.84C1061.96 65.2667 1061.51 65.48 1061.05 65.48ZM1111.71 59C1111.26 59 1110.89 58.8667 1110.59 58.6C1110.3 58.3067 1110.15 57.9333 1110.15 57.48V45.96C1110.15 44.0667 1109.66 42.5733 1108.67 41.48C1107.69 40.36 1106.42 39.8 1104.87 39.8C1103.22 39.8 1101.86 40.36 1100.79 41.48C1099.75 42.5733 1099.25 44.04 1099.27 45.88H1096.51C1096.54 44.0933 1096.93 42.52 1097.67 41.16C1098.42 39.8 1099.45 38.7467 1100.75 38C1102.06 37.2533 1103.54 36.88 1105.19 36.88C1106.77 36.88 1108.15 37.2533 1109.35 38C1110.58 38.7467 1111.53 39.8 1112.19 41.16C1112.89 42.52 1113.23 44.12 1113.23 45.96V57.48C1113.23 57.9333 1113.09 58.3067 1112.79 58.6C1112.53 58.8667 1112.17 59 1111.71 59ZM1083.71 59C1083.23 59 1082.85 58.8667 1082.55 58.6C1082.29 58.3067 1082.15 57.9333 1082.15 57.48V38.68C1082.15 38.2267 1082.29 37.8533 1082.55 37.56C1082.85 37.2667 1083.23 37.12 1083.71 37.12C1084.17 37.12 1084.53 37.2667 1084.79 37.56C1085.09 37.8533 1085.23 38.2267 1085.23 38.68V57.48C1085.23 57.9333 1085.09 58.3067 1084.79 58.6C1084.53 58.8667 1084.17 59 1083.71 59ZM1097.75 59C1097.3 59 1096.93 58.8667 1096.63 58.6C1096.34 58.3067 1096.19 57.9333 1096.19 57.48V45.96C1096.19 44.0667 1095.7 42.5733 1094.71 41.48C1093.73 40.36 1092.46 39.8 1090.91 39.8C1089.26 39.8 1087.9 40.3467 1086.83 41.44C1085.77 42.5067 1085.23 43.9067 1085.23 45.64H1083.03C1083.09 43.9333 1083.46 42.4267 1084.15 41.12C1084.87 39.7867 1085.85 38.7467 1087.07 38C1088.3 37.2533 1089.69 36.88 1091.23 36.88C1092.81 36.88 1094.19 37.2533 1095.39 38C1096.62 38.7467 1097.57 39.8 1098.23 41.16C1098.93 42.52 1099.27 44.12 1099.27 45.96V57.48C1099.27 57.9333 1099.13 58.3067 1098.83 58.6C1098.57 58.8667 1098.21 59 1097.75 59ZM1129.69 59.2C1127.63 59.2 1125.79 58.72 1124.17 57.76C1122.54 56.7733 1121.25 55.44 1120.29 53.76C1119.35 52.08 1118.89 50.1867 1118.89 48.08C1118.89 45.9467 1119.37 44.04 1120.33 42.36C1121.31 40.68 1122.65 39.36 1124.33 38.4C1126.01 37.4133 1127.9 36.92 1130.01 36.92C1132.11 36.92 1133.99 37.4133 1135.65 38.4C1137.33 39.36 1138.65 40.68 1139.61 42.36C1140.59 44.04 1141.1 45.9467 1141.13 48.08L1139.89 49.04C1139.89 50.96 1139.43 52.6933 1138.53 54.24C1137.65 55.76 1136.43 56.9733 1134.89 57.88C1133.37 58.76 1131.63 59.2 1129.69 59.2ZM1130.01 56.4C1131.55 56.4 1132.93 56.04 1134.13 55.32C1135.35 54.6 1136.31 53.6133 1137.01 52.36C1137.73 51.08 1138.09 49.6533 1138.09 48.08C1138.09 46.48 1137.73 45.0533 1137.01 43.8C1136.31 42.5467 1135.35 41.56 1134.13 40.84C1132.93 40.0933 1131.55 39.72 1130.01 39.72C1128.49 39.72 1127.11 40.0933 1125.89 40.84C1124.66 41.56 1123.69 42.5467 1122.97 43.8C1122.25 45.0533 1121.89 46.48 1121.89 48.08C1121.89 49.6533 1122.25 51.08 1122.97 52.36C1123.69 53.6133 1124.66 54.6 1125.89 55.32C1127.11 56.04 1128.49 56.4 1130.01 56.4ZM1139.57 59C1139.11 59 1138.74 58.8667 1138.45 58.6C1138.15 58.3067 1138.01 57.9333 1138.01 57.48V50.64L1138.77 47.48L1141.13 48.08V57.48C1141.13 57.9333 1140.98 58.3067 1140.69 58.6C1140.39 58.8667 1140.02 59 1139.57 59ZM1148.68 59C1148.2 59 1147.81 58.8667 1147.52 58.6C1147.25 58.3067 1147.12 57.92 1147.12 57.44V38.68C1147.12 38.2 1147.25 37.8267 1147.52 37.56C1147.81 37.2667 1148.2 37.12 1148.68 37.12C1149.37 37.12 1149.93 37.44 1150.36 38.08L1159.2 50.88L1168.04 38.08C1168.46 37.44 1169.02 37.12 1169.72 37.12C1170.2 37.12 1170.57 37.2667 1170.84 37.56C1171.13 37.8267 1171.28 38.2 1171.28 38.68V57.44C1171.28 57.92 1171.13 58.3067 1170.84 58.6C1170.57 58.8667 1170.2 59 1169.72 59C1169.24 59 1168.86 58.8667 1168.6 58.6C1168.33 58.3067 1168.2 57.92 1168.2 57.44V40.68L1169.2 41L1160.64 53.36C1160.21 53.9733 1159.72 54.28 1159.16 54.28C1158.6 54.28 1158.12 53.9733 1157.72 53.36L1149.16 41.12L1150.2 40.8V57.44C1150.2 57.92 1150.06 58.3067 1149.8 58.6C1149.53 58.8667 1149.16 59 1148.68 59ZM98.16 104C97.7067 104 97.3333 103.867 97.04 103.6C96.7467 103.307 96.6 102.933 96.6 102.48V90.96C96.6 89.0667 96.1067 87.5733 95.12 86.48C94.1333 85.36 92.8667 84.8 91.32 84.8C89.6667 84.8 88.3067 85.36 87.24 86.48C86.2 87.5733 85.6933 89.04 85.72 90.88H82.96C82.9867 89.0933 83.3733 87.52 84.12 86.16C84.8667 84.8 85.8933 83.7467 87.2 83C88.5067 82.2533 89.9867 81.88 91.64 81.88C93.2133 81.88 94.6 82.2533 95.8 83C97.0267 83.7467 97.9733 84.8 98.64 86.16C99.3333 87.52 99.68 89.12 99.68 90.96V102.48C99.68 102.933 99.5333 103.307 99.24 103.6C98.9733 103.867 98.6133 104 98.16 104ZM70.16 104C69.68 104 69.2933 103.867 69 103.6C68.7333 103.307 68.6 102.933 68.6 102.48V83.68C68.6 83.2267 68.7333 82.8533 69 82.56C69.2933 82.2667 69.68 82.12 70.16 82.12C70.6133 82.12 70.9733 82.2667 71.24 82.56C71.5333 82.8533 71.68 83.2267 71.68 83.68V102.48C71.68 102.933 71.5333 103.307 71.24 103.6C70.9733 103.867 70.6133 104 70.16 104ZM84.2 104C83.7467 104 83.3733 103.867 83.08 103.6C82.7867 103.307 82.64 102.933 82.64 102.48V90.96C82.64 89.0667 82.1467 87.5733 81.16 86.48C80.1733 85.36 78.9067 84.8 77.36 84.8C75.7067 84.8 74.3467 85.3467 73.28 86.44C72.2133 87.5067 71.68 88.9067 71.68 90.64H69.48C69.5333 88.9333 69.9067 87.4267 70.6 86.12C71.32 84.7867 72.2933 83.7467 73.52 83C74.7467 82.2533 76.1333 81.88 77.68 81.88C79.2533 81.88 80.64 82.2533 81.84 83C83.0667 83.7467 84.0133 84.8 84.68 86.16C85.3733 87.52 85.72 89.12 85.72 90.96V102.48C85.72 102.933 85.5733 103.307 85.28 103.6C85.0133 103.867 84.6533 104 84.2 104ZM108.051 113.36C107.571 113.36 107.184 113.213 106.891 112.92C106.624 112.653 106.491 112.28 106.491 111.8V92.92C106.517 90.84 107.011 88.9733 107.971 87.32C108.957 85.64 110.277 84.32 111.931 83.36C113.611 82.4 115.491 81.92 117.571 81.92C119.704 81.92 121.611 82.4133 123.291 83.4C124.971 84.36 126.291 85.68 127.251 87.36C128.237 89.04 128.731 90.9467 128.731 93.08C128.731 95.1867 128.251 97.08 127.291 98.76C126.357 100.44 125.077 101.773 123.451 102.76C121.824 103.72 119.984 104.2 117.931 104.2C116.144 104.2 114.517 103.827 113.051 103.08C111.611 102.307 110.451 101.293 109.571 100.04V111.8C109.571 112.28 109.424 112.653 109.131 112.92C108.864 113.213 108.504 113.36 108.051 113.36ZM117.571 101.4C119.117 101.4 120.504 101.04 121.731 100.32C122.957 99.6 123.917 98.6133 124.611 97.36C125.331 96.08 125.691 94.6533 125.691 93.08C125.691 91.48 125.331 90.0533 124.611 88.8C123.917 87.5467 122.957 86.56 121.731 85.84C120.504 85.0933 119.117 84.72 117.571 84.72C116.051 84.72 114.677 85.0933 113.451 85.84C112.224 86.56 111.264 87.5467 110.571 88.8C109.877 90.0533 109.531 91.48 109.531 93.08C109.531 94.6533 109.877 96.08 110.571 97.36C111.264 98.6133 112.224 99.6 113.451 100.32C114.677 101.04 116.051 101.4 117.571 101.4ZM144.692 104.2C142.532 104.2 140.612 103.733 138.932 102.8C137.279 101.84 135.972 100.52 135.012 98.84C134.079 97.16 133.612 95.24 133.612 93.08C133.612 90.8933 134.052 88.9733 134.932 87.32C135.839 85.64 137.079 84.32 138.652 83.36C140.225 82.4 142.039 81.92 144.092 81.92C146.119 81.92 147.879 82.3867 149.372 83.32C150.892 84.2267 152.065 85.4933 152.892 87.12C153.719 88.7467 154.132 90.6 154.132 92.68C154.132 93.1067 153.999 93.4533 153.732 93.72C153.465 93.96 153.119 94.08 152.692 94.08H135.692V91.52H153.012L151.292 92.76C151.319 91.2133 151.039 89.8267 150.452 88.6C149.865 87.3733 149.025 86.4133 147.932 85.72C146.865 85.0267 145.585 84.68 144.092 84.68C142.572 84.68 141.239 85.04 140.092 85.76C138.945 86.48 138.052 87.48 137.412 88.76C136.799 90.0133 136.492 91.4533 136.492 93.08C136.492 94.7067 136.839 96.1467 137.532 97.4C138.252 98.6533 139.225 99.64 140.452 100.36C141.679 101.08 143.092 101.44 144.692 101.44C145.652 101.44 146.612 101.28 147.572 100.96C148.559 100.613 149.345 100.187 149.932 99.68C150.225 99.44 150.559 99.32 150.932 99.32C151.305 99.2933 151.625 99.3867 151.892 99.6C152.239 99.92 152.412 100.267 152.412 100.64C152.439 101.013 152.292 101.333 151.972 101.6C151.092 102.347 149.972 102.973 148.612 103.48C147.252 103.96 145.945 104.2 144.692 104.2ZM169.142 104.2C167.036 104.2 165.169 103.72 163.542 102.76C161.916 101.8 160.636 100.48 159.702 98.8C158.796 97.0933 158.342 95.1467 158.342 92.96H159.982C159.982 91.0667 160.382 89.4 161.182 87.96C162.009 86.4933 163.129 85.3467 164.542 84.52C165.982 83.6933 167.622 83.28 169.462 83.28C171.462 83.28 173.236 83.72 174.782 84.6C176.356 85.48 177.582 86.7067 178.462 88.28C179.342 89.8533 179.782 91.6533 179.782 93.68C179.782 95.7333 179.329 97.56 178.422 99.16C177.516 100.733 176.262 101.973 174.662 102.88C173.062 103.76 171.222 104.2 169.142 104.2ZM169.142 101.4C170.636 101.4 171.956 101.08 173.102 100.44C174.249 99.7733 175.142 98.8667 175.782 97.72C176.449 96.5467 176.782 95.2 176.782 93.68C176.782 92.1867 176.449 90.8667 175.782 89.72C175.142 88.5733 174.249 87.68 173.102 87.04C171.956 86.4 170.636 86.08 169.142 86.08C167.622 86.08 166.276 86.4 165.102 87.04C163.929 87.68 163.009 88.5733 162.342 89.72C161.702 90.8667 161.382 92.1867 161.382 93.68C161.382 95.2 161.702 96.5467 162.342 97.72C163.009 98.8667 163.929 99.7733 165.102 100.44C166.276 101.08 167.622 101.4 169.142 101.4ZM158.342 93.08V89.8C158.369 86.2533 159.316 83.08 161.182 80.28C163.049 77.4533 165.956 75.28 169.902 73.76L175.782 71.44C176.209 71.28 176.582 71.2667 176.902 71.4C177.222 71.5333 177.462 71.8 177.622 72.2C177.756 72.6267 177.756 73 177.622 73.32C177.516 73.64 177.209 73.8933 176.702 74.08L170.462 76.64C168.116 77.5467 166.222 78.6933 164.782 80.08C163.369 81.4667 162.342 83.0267 161.702 84.76C161.062 86.4667 160.742 88.28 160.742 90.2L160.782 93.08H158.342ZM184.417 113.56C183.83 113.587 183.243 113.507 182.657 113.32C182.097 113.16 181.537 112.92 180.977 112.6C180.55 112.333 180.283 111.987 180.177 111.56C180.043 111.16 180.123 110.773 180.417 110.4C180.683 110.053 181.003 109.867 181.377 109.84C181.777 109.84 182.19 109.947 182.617 110.16C182.91 110.347 183.203 110.48 183.497 110.56C183.79 110.64 184.123 110.68 184.497 110.68C185.377 110.653 186.217 110.24 187.017 109.44C187.843 108.64 188.59 107.48 189.257 105.96L199.217 82.96C199.377 82.56 199.643 82.2933 200.017 82.16C200.417 82 200.817 82.0133 201.217 82.2C201.59 82.36 201.83 82.6267 201.937 83C202.07 83.3733 202.043 83.7733 201.857 84.2L191.857 107.16C191.003 109.08 189.923 110.627 188.617 111.8C187.337 112.973 185.937 113.56 184.417 113.56ZM192.777 103.32C192.377 103.507 192.003 103.547 191.657 103.44C191.31 103.307 191.03 103.04 190.817 102.64L181.897 84.16C181.71 83.76 181.683 83.3867 181.817 83.04C181.95 82.6933 182.217 82.4267 182.617 82.24C183.017 82.0533 183.39 82.0267 183.737 82.16C184.083 82.2667 184.35 82.52 184.537 82.92L193.337 101.32C193.523 101.72 193.577 102.107 193.497 102.48C193.417 102.853 193.177 103.133 192.777 103.32ZM216.098 104.2C213.938 104.2 212.018 103.733 210.338 102.8C208.685 101.84 207.378 100.52 206.418 98.84C205.485 97.16 205.018 95.24 205.018 93.08C205.018 90.8933 205.458 88.9733 206.338 87.32C207.245 85.64 208.485 84.32 210.058 83.36C211.631 82.4 213.445 81.92 215.498 81.92C217.525 81.92 219.285 82.3867 220.778 83.32C222.298 84.2267 223.471 85.4933 224.298 87.12C225.125 88.7467 225.538 90.6 225.538 92.68C225.538 93.1067 225.405 93.4533 225.138 93.72C224.871 93.96 224.525 94.08 224.098 94.08H207.098V91.52H224.418L222.698 92.76C222.725 91.2133 222.445 89.8267 221.858 88.6C221.271 87.3733 220.431 86.4133 219.338 85.72C218.271 85.0267 216.991 84.68 215.498 84.68C213.978 84.68 212.645 85.04 211.498 85.76C210.351 86.48 209.458 87.48 208.818 88.76C208.205 90.0133 207.898 91.4533 207.898 93.08C207.898 94.7067 208.245 96.1467 208.938 97.4C209.658 98.6533 210.631 99.64 211.858 100.36C213.085 101.08 214.498 101.44 216.098 101.44C217.058 101.44 218.018 101.28 218.978 100.96C219.965 100.613 220.751 100.187 221.338 99.68C221.631 99.44 221.965 99.32 222.338 99.32C222.711 99.2933 223.031 99.3867 223.298 99.6C223.645 99.92 223.818 100.267 223.818 100.64C223.845 101.013 223.698 101.333 223.378 101.6C222.498 102.347 221.378 102.973 220.018 103.48C218.658 103.96 217.351 104.2 216.098 104.2ZM260.308 104C259.855 104 259.482 103.867 259.188 103.6C258.895 103.307 258.748 102.933 258.748 102.48V90.96C258.748 89.0667 258.255 87.5733 257.268 86.48C256.282 85.36 255.015 84.8 253.468 84.8C251.815 84.8 250.455 85.36 249.388 86.48C248.348 87.5733 247.842 89.04 247.868 90.88H245.108C245.135 89.0933 245.522 87.52 246.268 86.16C247.015 84.8 248.042 83.7467 249.348 83C250.655 82.2533 252.135 81.88 253.788 81.88C255.362 81.88 256.748 82.2533 257.948 83C259.175 83.7467 260.122 84.8 260.788 86.16C261.482 87.52 261.828 89.12 261.828 90.96V102.48C261.828 102.933 261.682 103.307 261.388 103.6C261.122 103.867 260.762 104 260.308 104ZM232.308 104C231.828 104 231.442 103.867 231.148 103.6C230.882 103.307 230.748 102.933 230.748 102.48V83.68C230.748 83.2267 230.882 82.8533 231.148 82.56C231.442 82.2667 231.828 82.12 232.308 82.12C232.762 82.12 233.122 82.2667 233.388 82.56C233.682 82.8533 233.828 83.2267 233.828 83.68V102.48C233.828 102.933 233.682 103.307 233.388 103.6C233.122 103.867 232.762 104 232.308 104ZM246.348 104C245.895 104 245.522 103.867 245.228 103.6C244.935 103.307 244.788 102.933 244.788 102.48V90.96C244.788 89.0667 244.295 87.5733 243.308 86.48C242.322 85.36 241.055 84.8 239.508 84.8C237.855 84.8 236.495 85.3467 235.428 86.44C234.362 87.5067 233.828 88.9067 233.828 90.64H231.628C231.682 88.9333 232.055 87.4267 232.748 86.12C233.468 84.7867 234.442 83.7467 235.668 83C236.895 82.2533 238.282 81.88 239.828 81.88C241.402 81.88 242.788 82.2533 243.988 83C245.215 83.7467 246.162 84.8 246.828 86.16C247.522 87.52 247.868 89.12 247.868 90.96V102.48C247.868 102.933 247.722 103.307 247.428 103.6C247.162 103.867 246.802 104 246.348 104ZM278.399 104.2C276.292 104.2 274.412 103.72 272.759 102.76C271.132 101.773 269.839 100.44 268.879 98.76C267.946 97.08 267.479 95.1867 267.479 93.08C267.479 90.9467 267.932 89.04 268.839 87.36C269.746 85.68 270.986 84.36 272.559 83.4C274.132 82.4133 275.946 81.92 277.999 81.92C279.626 81.92 281.119 82.24 282.479 82.88C283.866 83.52 285.079 84.48 286.119 85.76C286.412 86.08 286.519 86.4267 286.439 86.8C286.359 87.1467 286.132 87.4533 285.759 87.72C285.466 87.9333 285.132 88.0133 284.759 87.96C284.412 87.88 284.106 87.68 283.839 87.36C282.292 85.6 280.346 84.72 277.999 84.72C276.506 84.72 275.186 85.08 274.039 85.8C272.919 86.52 272.039 87.5067 271.399 88.76C270.786 90.0133 270.479 91.4533 270.479 93.08C270.479 94.68 270.812 96.1067 271.479 97.36C272.146 98.6133 273.079 99.6 274.279 100.32C275.479 101.04 276.852 101.4 278.399 101.4C279.439 101.4 280.386 101.267 281.239 101C282.119 100.707 282.892 100.267 283.559 99.68C283.879 99.4133 284.212 99.2667 284.559 99.24C284.906 99.2133 285.226 99.32 285.519 99.56C285.839 99.8533 286.012 100.187 286.039 100.56C286.092 100.933 285.972 101.253 285.679 101.52C283.732 103.307 281.306 104.2 278.399 104.2ZM306.868 104C306.441 104 306.081 103.867 305.788 103.6C305.521 103.307 305.388 102.92 305.388 102.44V96.44H298.988V96.04C297.628 96.04 296.415 95.76 295.348 95.2C294.281 94.6133 293.455 93.8133 292.868 92.8C292.281 91.7867 291.988 90.6133 291.988 89.28C291.988 87.8933 292.308 86.6667 292.948 85.6C293.615 84.5067 294.535 83.6533 295.708 83.04C296.881 82.4267 298.228 82.12 299.748 82.12H306.868C307.348 82.12 307.721 82.2667 307.988 82.56C308.281 82.8267 308.428 83.2 308.428 83.68V102.48C308.401 102.933 308.241 103.307 307.948 103.6C307.681 103.867 307.321 104 306.868 104ZM291.908 103.6C291.588 103.307 291.428 102.987 291.428 102.64C291.455 102.293 291.588 101.96 291.828 101.64L297.428 94.52L301.388 94.6L294.188 103.44C293.868 103.84 293.468 104.027 292.988 104C292.535 104 292.175 103.867 291.908 103.6ZM299.748 93.8H305.388V84.96H299.748C298.388 84.96 297.255 85.36 296.348 86.16C295.441 86.9333 294.988 87.9733 294.988 89.28C294.988 90.6933 295.441 91.8 296.348 92.6C297.255 93.4 298.388 93.8 299.748 93.8ZM328.91 104C328.43 104 328.043 103.867 327.75 103.6C327.483 103.307 327.35 102.92 327.35 102.44V83.64C327.377 83.1867 327.523 82.8267 327.79 82.56C328.083 82.2667 328.457 82.12 328.91 82.12C329.363 82.12 329.723 82.2667 329.99 82.56C330.283 82.8267 330.43 83.2 330.43 83.68V91.28H338.87V91.84C340.257 91.84 341.483 92.0933 342.55 92.6C343.643 93.1067 344.483 93.8133 345.07 94.72C345.683 95.6 345.99 96.6133 345.99 97.76C345.99 98.9867 345.683 100.067 345.07 101C344.483 101.933 343.643 102.667 342.55 103.2C341.483 103.733 340.257 104 338.87 104H328.91ZM330.43 101.16H338.87C340.07 101.16 341.057 100.853 341.83 100.24C342.603 99.6267 342.99 98.7467 342.99 97.6C342.99 96.4 342.603 95.4933 341.83 94.88C341.057 94.24 340.07 93.92 338.87 93.92H330.43V101.16ZM334.91 93V91.28H338.87C339.803 91.28 340.563 90.9733 341.15 90.36C341.737 89.7467 342.03 88.96 342.03 88C342.03 87.1467 341.71 86.4267 341.07 85.84C340.457 85.2267 339.67 84.92 338.71 84.92H328.95V82.12H338.71C339.937 82.12 341.017 82.3733 341.95 82.88C342.91 83.36 343.657 84.0267 344.19 84.88C344.75 85.7333 345.03 86.72 345.03 87.84C345.03 89.5733 344.443 90.8667 343.27 91.72C342.123 92.5733 340.657 93 338.87 93H334.91ZM360.857 104.2C358.804 104.2 356.964 103.72 355.337 102.76C353.711 101.773 352.417 100.44 351.457 98.76C350.524 97.08 350.057 95.1867 350.057 93.08C350.057 90.9467 350.537 89.04 351.497 87.36C352.484 85.68 353.817 84.36 355.497 83.4C357.177 82.4133 359.071 81.92 361.177 81.92C363.284 81.92 365.164 82.4133 366.817 83.4C368.497 84.36 369.817 85.68 370.777 87.36C371.764 89.04 372.271 90.9467 372.297 93.08L371.057 94.04C371.057 95.96 370.604 97.6933 369.697 99.24C368.817 100.76 367.604 101.973 366.057 102.88C364.537 103.76 362.804 104.2 360.857 104.2ZM361.177 101.4C362.724 101.4 364.097 101.04 365.297 100.32C366.524 99.6 367.484 98.6133 368.177 97.36C368.897 96.08 369.257 94.6533 369.257 93.08C369.257 91.48 368.897 90.0533 368.177 88.8C367.484 87.5467 366.524 86.56 365.297 85.84C364.097 85.0933 362.724 84.72 361.177 84.72C359.657 84.72 358.284 85.0933 357.057 85.84C355.831 86.56 354.857 87.5467 354.137 88.8C353.417 90.0533 353.057 91.48 353.057 93.08C353.057 94.6533 353.417 96.08 354.137 97.36C354.857 98.6133 355.831 99.6 357.057 100.32C358.284 101.04 359.657 101.4 361.177 101.4ZM370.737 104C370.284 104 369.911 103.867 369.617 103.6C369.324 103.307 369.177 102.933 369.177 102.48V95.64L369.937 92.48L372.297 93.08V102.48C372.297 102.933 372.151 103.307 371.857 103.6C371.564 103.867 371.191 104 370.737 104ZM399.888 104.28C398.314 104.28 396.914 103.907 395.688 103.16C394.488 102.413 393.541 101.36 392.848 100C392.181 98.64 391.848 97.04 391.848 95.2V83.68C391.848 83.2 391.981 82.8267 392.248 82.56C392.541 82.2667 392.914 82.12 393.368 82.12C393.821 82.12 394.194 82.2667 394.488 82.56C394.781 82.8267 394.928 83.2 394.928 83.68V95.2C394.928 96.4533 395.141 97.5467 395.568 98.48C396.021 99.3867 396.648 100.093 397.448 100.6C398.248 101.08 399.168 101.32 400.208 101.32C401.861 101.32 403.221 100.787 404.288 99.72C405.354 98.6267 405.888 97.24 405.888 95.56L407.528 95.6C407.474 97.28 407.114 98.7733 406.448 100.08C405.781 101.387 404.874 102.413 403.728 103.16C402.608 103.907 401.328 104.28 399.888 104.28ZM385.928 104.28C384.354 104.28 382.954 103.907 381.728 103.16C380.528 102.413 379.581 101.36 378.888 100C378.221 98.64 377.888 97.04 377.888 95.2V83.68C377.888 83.2 378.021 82.8267 378.288 82.56C378.581 82.2667 378.954 82.12 379.408 82.12C379.861 82.12 380.234 82.2667 380.528 82.56C380.821 82.8267 380.968 83.2 380.968 83.68V95.2C380.968 96.4533 381.181 97.5467 381.608 98.48C382.061 99.3867 382.688 100.093 383.488 100.6C384.288 101.08 385.208 101.32 386.248 101.32C387.901 101.32 389.248 100.773 390.288 99.68C391.354 98.5867 391.874 97.1333 391.848 95.32H393.488C393.461 97.08 393.114 98.64 392.448 100C391.808 101.333 390.914 102.387 389.768 103.16C388.648 103.907 387.368 104.28 385.928 104.28ZM407.408 104C406.954 104 406.581 103.867 406.288 103.6C406.021 103.307 405.888 102.92 405.888 102.44V83.68C405.888 83.2 406.021 82.8267 406.288 82.56C406.581 82.2667 406.954 82.12 407.408 82.12C407.861 82.12 408.234 82.2667 408.528 82.56C408.821 82.8267 408.968 83.2 408.968 83.68V102.44C408.968 102.92 408.821 103.307 408.528 103.6C408.234 103.867 407.861 104 407.408 104ZM425.818 104.2C423.765 104.2 421.925 103.72 420.298 102.76C418.671 101.773 417.378 100.44 416.418 98.76C415.485 97.08 415.018 95.1867 415.018 93.08C415.018 90.9467 415.498 89.04 416.458 87.36C417.445 85.68 418.778 84.36 420.458 83.4C422.138 82.4133 424.031 81.92 426.138 81.92C428.245 81.92 430.125 82.4133 431.778 83.4C433.458 84.36 434.778 85.68 435.738 87.36C436.725 89.04 437.231 90.9467 437.258 93.08L436.018 94.04C436.018 95.96 435.565 97.6933 434.658 99.24C433.778 100.76 432.565 101.973 431.018 102.88C429.498 103.76 427.765 104.2 425.818 104.2ZM426.138 101.4C427.685 101.4 429.058 101.04 430.258 100.32C431.485 99.6 432.445 98.6133 433.138 97.36C433.858 96.08 434.218 94.6533 434.218 93.08C434.218 91.48 433.858 90.0533 433.138 88.8C432.445 87.5467 431.485 86.56 430.258 85.84C429.058 85.0933 427.685 84.72 426.138 84.72C424.618 84.72 423.245 85.0933 422.018 85.84C420.791 86.56 419.818 87.5467 419.098 88.8C418.378 90.0533 418.018 91.48 418.018 93.08C418.018 94.6533 418.378 96.08 419.098 97.36C419.818 98.6133 420.791 99.6 422.018 100.32C423.245 101.04 424.618 101.4 426.138 101.4ZM435.698 104C435.245 104 434.871 103.867 434.578 103.6C434.285 103.307 434.138 102.933 434.138 102.48V95.64L434.898 92.48L437.258 93.08V102.48C437.258 102.933 437.111 103.307 436.818 103.6C436.525 103.867 436.151 104 435.698 104ZM473.727 104C473.274 104 472.901 103.853 472.607 103.56C472.314 103.267 472.167 102.907 472.167 102.48V92.08C472.167 90.4267 471.847 89.0667 471.207 88C470.594 86.9333 469.741 86.1333 468.647 85.6C467.581 85.0667 466.367 84.8 465.007 84.8C463.701 84.8 462.514 85.0533 461.447 85.56C460.407 86.0667 459.581 86.76 458.967 87.64C458.354 88.52 458.047 89.52 458.047 90.64H455.847C455.901 88.96 456.354 87.4667 457.207 86.16C458.061 84.8267 459.194 83.7867 460.607 83.04C462.021 82.2667 463.594 81.88 465.327 81.88C467.221 81.88 468.914 82.28 470.407 83.08C471.901 83.8533 473.074 85 473.927 86.52C474.807 88.04 475.247 89.8933 475.247 92.08V102.48C475.247 102.907 475.101 103.267 474.807 103.56C474.514 103.853 474.154 104 473.727 104ZM456.527 104C456.047 104 455.661 103.867 455.367 103.6C455.101 103.307 454.967 102.933 454.967 102.48V83.68C454.967 83.2 455.101 82.8267 455.367 82.56C455.661 82.2667 456.047 82.12 456.527 82.12C456.981 82.12 457.341 82.2667 457.607 82.56C457.901 82.8267 458.047 83.2 458.047 83.68V102.48C458.047 102.933 457.901 103.307 457.607 103.6C457.341 103.867 456.981 104 456.527 104ZM491.998 104.2C489.864 104.2 487.958 103.72 486.278 102.76C484.598 101.8 483.278 100.48 482.318 98.8C481.358 97.12 480.878 95.2133 480.878 93.08C480.878 90.92 481.358 89 482.318 87.32C483.278 85.64 484.598 84.32 486.278 83.36C487.958 82.4 489.864 81.92 491.998 81.92C494.131 81.92 496.024 82.4 497.678 83.36C499.358 84.32 500.678 85.64 501.638 87.32C502.598 89 503.091 90.92 503.118 93.08C503.118 95.2133 502.624 97.12 501.638 98.8C500.678 100.48 499.358 101.8 497.678 102.76C496.024 103.72 494.131 104.2 491.998 104.2ZM491.998 101.4C493.544 101.4 494.931 101.04 496.158 100.32C497.384 99.6 498.344 98.6133 499.038 97.36C499.731 96.1067 500.078 94.68 500.078 93.08C500.078 91.48 499.731 90.0533 499.038 88.8C498.344 87.52 497.384 86.52 496.158 85.8C494.931 85.08 493.544 84.72 491.998 84.72C490.451 84.72 489.064 85.08 487.838 85.8C486.611 86.52 485.638 87.52 484.918 88.8C484.224 90.0533 483.878 91.48 483.878 93.08C483.878 94.68 484.224 96.1067 484.918 97.36C485.638 98.6133 486.611 99.6 487.838 100.32C489.064 101.04 490.451 101.4 491.998 101.4ZM510.668 104C510.188 104 509.801 103.867 509.508 103.6C509.241 103.307 509.108 102.92 509.108 102.44V83.68C509.108 83.2 509.241 82.8267 509.508 82.56C509.801 82.2667 510.188 82.12 510.668 82.12C511.361 82.12 511.921 82.44 512.348 83.08L521.188 95.88L530.028 83.08C530.454 82.44 531.014 82.12 531.708 82.12C532.188 82.12 532.561 82.2667 532.828 82.56C533.121 82.8267 533.268 83.2 533.268 83.68V102.44C533.268 102.92 533.121 103.307 532.828 103.6C532.561 103.867 532.188 104 531.708 104C531.228 104 530.854 103.867 530.588 103.6C530.321 103.307 530.188 102.92 530.188 102.44V85.68L531.188 86L522.628 98.36C522.201 98.9733 521.708 99.28 521.148 99.28C520.588 99.28 520.108 98.9733 519.708 98.36L511.148 86.12L512.188 85.8V102.44C512.188 102.92 512.054 103.307 511.788 103.6C511.521 103.867 511.148 104 510.668 104ZM550.435 104.2C548.302 104.2 546.395 103.72 544.715 102.76C543.035 101.8 541.715 100.48 540.755 98.8C539.795 97.12 539.315 95.2133 539.315 93.08C539.315 90.92 539.795 89 540.755 87.32C541.715 85.64 543.035 84.32 544.715 83.36C546.395 82.4 548.302 81.92 550.435 81.92C552.568 81.92 554.462 82.4 556.115 83.36C557.795 84.32 559.115 85.64 560.075 87.32C561.035 89 561.528 90.92 561.555 93.08C561.555 95.2133 561.062 97.12 560.075 98.8C559.115 100.48 557.795 101.8 556.115 102.76C554.462 103.72 552.568 104.2 550.435 104.2ZM550.435 101.4C551.982 101.4 553.368 101.04 554.595 100.32C555.822 99.6 556.782 98.6133 557.475 97.36C558.168 96.1067 558.515 94.68 558.515 93.08C558.515 91.48 558.168 90.0533 557.475 88.8C556.782 87.52 555.822 86.52 554.595 85.8C553.368 85.08 551.982 84.72 550.435 84.72C548.888 84.72 547.502 85.08 546.275 85.8C545.048 86.52 544.075 87.52 543.355 88.8C542.662 90.0533 542.315 91.48 542.315 93.08C542.315 94.68 542.662 96.1067 543.355 97.36C544.075 98.6133 545.048 99.6 546.275 100.32C547.502 101.04 548.888 101.4 550.435 101.4ZM589.145 104.28C587.572 104.28 586.172 103.907 584.945 103.16C583.745 102.413 582.799 101.36 582.105 100C581.439 98.64 581.105 97.04 581.105 95.2V83.68C581.105 83.2 581.239 82.8267 581.505 82.56C581.799 82.2667 582.172 82.12 582.625 82.12C583.079 82.12 583.452 82.2667 583.745 82.56C584.039 82.8267 584.185 83.2 584.185 83.68V95.2C584.185 96.4533 584.399 97.5467 584.825 98.48C585.279 99.3867 585.905 100.093 586.705 100.6C587.505 101.08 588.425 101.32 589.465 101.32C591.119 101.32 592.479 100.787 593.545 99.72C594.612 98.6267 595.145 97.24 595.145 95.56L596.785 95.6C596.732 97.28 596.372 98.7733 595.705 100.08C595.039 101.387 594.132 102.413 592.985 103.16C591.865 103.907 590.585 104.28 589.145 104.28ZM575.185 104.28C573.612 104.28 572.212 103.907 570.985 103.16C569.785 102.413 568.839 101.36 568.145 100C567.479 98.64 567.145 97.04 567.145 95.2V83.68C567.145 83.2 567.279 82.8267 567.545 82.56C567.839 82.2667 568.212 82.12 568.665 82.12C569.119 82.12 569.492 82.2667 569.785 82.56C570.079 82.8267 570.225 83.2 570.225 83.68V95.2C570.225 96.4533 570.439 97.5467 570.865 98.48C571.319 99.3867 571.945 100.093 572.745 100.6C573.545 101.08 574.465 101.32 575.505 101.32C577.159 101.32 578.505 100.773 579.545 99.68C580.612 98.5867 581.132 97.1333 581.105 95.32H582.745C582.719 97.08 582.372 98.64 581.705 100C581.065 101.333 580.172 102.387 579.025 103.16C577.905 103.907 576.625 104.28 575.185 104.28ZM600.665 110.84C600.212 110.84 599.852 110.693 599.585 110.4C599.319 110.133 599.185 109.76 599.185 109.28V104H598.145C597.105 104 596.345 103.76 595.865 103.28C595.385 102.8 595.145 102.04 595.145 101V83.64C595.145 83.1867 595.279 82.8267 595.545 82.56C595.839 82.2667 596.212 82.12 596.665 82.12C597.119 82.12 597.492 82.2667 597.785 82.56C598.079 82.8267 598.225 83.1867 598.225 83.64V101.32H600.545C601.025 101.32 601.399 101.467 601.665 101.76C601.959 102.027 602.105 102.4 602.105 102.88V109.28C602.105 109.76 601.972 110.133 601.705 110.4C601.465 110.693 601.119 110.84 600.665 110.84ZM615.81 104.4C613.97 104.4 612.356 104.053 610.97 103.36C609.583 102.667 608.49 101.72 607.69 100.52C606.916 99.2933 606.53 97.8667 606.53 96.24V83.64C606.556 83.1867 606.716 82.8267 607.01 82.56C607.303 82.2667 607.663 82.12 608.09 82.12C608.516 82.12 608.876 82.2667 609.17 82.56C609.463 82.8533 609.61 83.2267 609.61 83.68V89.36H616.13C617.863 89.36 619.383 89.6667 620.69 90.28C622.023 90.8933 623.05 91.76 623.77 92.88C624.516 94 624.89 95.2933 624.89 96.76C624.89 98.2267 624.503 99.5467 623.73 100.72C622.983 101.867 621.93 102.773 620.57 103.44C619.21 104.08 617.623 104.4 615.81 104.4ZM615.81 101.56C617.543 101.56 618.983 101.16 620.13 100.36C621.276 99.56 621.85 98.36 621.85 96.76C621.85 95.2667 621.343 94.1067 620.33 93.28C619.316 92.4533 617.916 92.04 616.13 92.04H609.61V96.24C609.61 97.2533 609.863 98.1733 610.37 99C610.903 99.8 611.623 100.427 612.53 100.88C613.463 101.333 614.556 101.56 615.81 101.56ZM630.765 96.92C630.339 96.92 629.965 96.7733 629.645 96.48C629.352 96.16 629.205 95.7867 629.205 95.36V74.32C629.205 73.8667 629.352 73.4933 629.645 73.2C629.965 72.88 630.339 72.72 630.765 72.72C631.219 72.72 631.592 72.88 631.885 73.2C632.179 73.4933 632.325 73.8667 632.325 74.32V95.36C632.325 95.7867 632.165 96.16 631.845 96.48C631.525 96.7733 631.165 96.92 630.765 96.92ZM630.765 104C630.125 104 629.579 103.773 629.125 103.32C628.672 102.867 628.445 102.32 628.445 101.68C628.445 101.013 628.672 100.453 629.125 100C629.579 99.5467 630.125 99.32 630.765 99.32C631.405 99.32 631.952 99.56 632.405 100.04C632.859 100.493 633.085 101.04 633.085 101.68C633.085 102.32 632.859 102.867 632.405 103.32C631.952 103.773 631.405 104 630.765 104Z" fill="black"/>
</svg>
